<svg width="50" height="50" viewBox="0 0 50 50" fill="none" xmlns="http://www.w3.org/2000/svg">
<circle opacity="0.1" cx="25" cy="25" r="25" fill="#FFCC2A"/>
<path fill-rule="evenodd" clip-rule="evenodd" d="M24.0909 29.7273H17.7273C17.004 29.7273 16.3103 29.4399 15.7988 28.9285C15.2873 28.417 15 27.7233 15 27V19.7273C15 19.004 15.2873 18.3103 15.7988 17.7988C16.3103 17.2873 17.004 17 17.7273 17H32.2727C32.996 17 33.6897 17.2873 34.2012 17.7988C34.7127 18.3103 35 19.004 35 19.7273V27C35 27.7233 34.7127 28.417 34.2012 28.9285C33.6897 29.4399 32.996 29.7273 32.2727 29.7273H25.9091V31.5455H28.6364C28.8775 31.5455 29.1087 31.6412 29.2792 31.8117C29.4497 31.9822 29.5455 32.2134 29.5455 32.4545C29.5455 32.6957 29.4497 32.9269 29.2792 33.0974C29.1087 33.2679 28.8775 33.3636 28.6364 33.3636H21.3636C21.1225 33.3636 20.8913 33.2679 20.7208 33.0974C20.5503 32.9269 20.4545 32.6957 20.4545 32.4545C20.4545 32.2134 20.5503 31.9822 20.7208 31.8117C20.8913 31.6412 21.1225 31.5455 21.3636 31.5455H24.0909V29.7273ZM17.7273 18.8182H32.2727C32.5138 18.8182 32.7451 18.914 32.9156 19.0844C33.086 19.2549 33.1818 19.4862 33.1818 19.7273V27C33.1818 27.2411 33.086 27.4723 32.9156 27.6428C32.7451 27.8133 32.5138 27.9091 32.2727 27.9091H17.7273C17.4862 27.9091 17.2549 27.8133 17.0844 27.6428C16.914 27.4723 16.8182 27.2411 16.8182 27V19.7273C16.8182 19.4862 16.914 19.2549 17.0844 19.0844C17.2549 18.914 17.4862 18.8182 17.7273 18.8182Z" fill="#FFCC2A"/>
</svg>
