<svg width="50" height="50" viewBox="0 0 50 50" fill="none" xmlns="http://www.w3.org/2000/svg">
<circle opacity="0.1" cx="25" cy="25" r="25" fill="#FFCC2A"/>
<path d="M31 29.184V27.333C31 25.403 29.43 23.833 27.5 23.833C26.673 23.833 26 23.16 26 22.333V20.816C26.5832 20.6103 27.0884 20.2292 27.4465 19.7251C27.8045 19.2209 27.9979 18.6184 28 18C28 16.346 26.654 15 25 15C23.346 15 22 16.346 22 18C22 19.302 22.839 20.401 24 20.815V22.333C24 23.16 23.327 23.833 22.5 23.833C20.57 23.833 19 25.403 19 27.333V29.184C18.4168 29.3897 17.9116 29.7708 17.5535 30.2749C17.1955 30.7791 17.0021 31.3816 17 32C17 33.654 18.346 35 20 35C21.654 35 23 33.654 23 32C22.9979 31.3816 22.8045 30.7791 22.4465 30.2749C22.0884 29.7708 21.5832 29.3897 21 29.184V27.333C21 26.506 21.673 25.833 22.5 25.833C23.479 25.833 24.364 25.426 25 24.775C25.3248 25.1095 25.7134 25.3755 26.1428 25.5573C26.5722 25.739 27.0337 25.8328 27.5 25.833C28.327 25.833 29 26.506 29 27.333V29.184C28.4168 29.3897 27.9116 29.7708 27.5535 30.2749C27.1955 30.7791 27.0021 31.3816 27 32C27 33.654 28.346 35 30 35C31.654 35 33 33.654 33 32C32.9979 31.3816 32.8045 30.7791 32.4465 30.2749C32.0884 29.7708 31.5832 29.3897 31 29.184ZM20 33C19.7425 32.9885 19.4994 32.8781 19.3213 32.6918C19.1431 32.5055 19.0437 32.2577 19.0437 32C19.0437 31.7423 19.1431 31.4945 19.3213 31.3082C19.4994 31.1219 19.7425 31.0115 20 31C20.2575 31.0115 20.5006 31.1219 20.6787 31.3082C20.8569 31.4945 20.9563 31.7423 20.9563 32C20.9563 32.2577 20.8569 32.5055 20.6787 32.6918C20.5006 32.8781 20.2575 32.9885 20 33ZM25 17C25.1981 16.9998 25.3917 17.0584 25.5565 17.1683C25.7213 17.2782 25.8497 17.4345 25.9256 17.6175C26.0015 17.8004 26.0214 18.0018 25.9828 18.196C25.9442 18.3903 25.8489 18.5688 25.7088 18.7088C25.5688 18.8489 25.3903 18.9442 25.196 18.9828C25.0018 19.0214 24.8004 19.0015 24.6175 18.9256C24.4345 18.8497 24.2782 18.7213 24.1683 18.5565C24.0584 18.3917 23.9998 18.1981 24 18C24 17.449 24.448 17 25 17ZM30 33C29.7425 32.9885 29.4994 32.8781 29.3213 32.6918C29.1431 32.5055 29.0437 32.2577 29.0437 32C29.0437 31.7423 29.1431 31.4945 29.3213 31.3082C29.4994 31.1219 29.7425 31.0115 30 31C30.2575 31.0115 30.5006 31.1219 30.6787 31.3082C30.8569 31.4945 30.9563 31.7423 30.9563 32C30.9563 32.2577 30.8569 32.5055 30.6787 32.6918C30.5006 32.8781 30.2575 32.9885 30 33Z" fill="#FFCC2A"/>
</svg>
