<svg width="50" height="50" viewBox="0 0 50 50" fill="none" xmlns="http://www.w3.org/2000/svg">
<circle opacity="0.1" cx="25" cy="25" r="25" fill="#FFCC2A"/>
<path d="M35 23.8889V21.6667H32.7778V19.4444C32.776 18.8556 32.5413 18.2914 32.125 17.875C31.7086 17.4587 31.1444 17.224 30.5556 17.2222H28.3333V15H26.1111V17.2222H23.8889V15H21.6667V17.2222H19.4444C18.8556 17.224 18.2914 17.4587 17.875 17.875C17.4587 18.2914 17.224 18.8556 17.2222 19.4444V21.6667H15V23.8889H17.2222V26.1111H15V28.3333H17.2222V30.5556C17.224 31.1444 17.4587 31.7086 17.875 32.125C18.2914 32.5413 18.8556 32.776 19.4444 32.7778H21.6667V35H23.8889V32.7778H26.1111V35H28.3333V32.7778H30.5556C31.1444 32.776 31.7086 32.5413 32.125 32.125C32.5413 31.7086 32.776 31.1444 32.7778 30.5556V28.3333H35V26.1111H32.7778V23.8889H35ZM30.5556 30.5556H19.4444V19.4444H30.5556V30.5556Z" fill="#FFCC2A"/>
<path d="M24.2898 20.5557H22.7953L20.562 29.4446H21.7031L22.2187 27.3612H24.792L25.2942 29.4446H26.4742L24.2898 20.5557ZM22.3687 26.4712L23.4998 21.6112H23.5509L24.6431 26.4712H22.3687ZM27.4931 20.5557H28.6042V29.4446H27.4931V20.5557Z" fill="#FFCC2A"/>
</svg>
