<svg width="50" height="50" viewBox="0 0 50 50" fill="none" xmlns="http://www.w3.org/2000/svg">
<circle opacity="0.1" cx="25" cy="25" r="25" fill="#FFCC2A"/>
<path d="M24.6665 29.6666C24.5332 29.6666 24.3998 29.6666 24.3332 29.5999L20.9998 27.5999C20.7998 27.4666 20.6665 27.2666 20.6665 26.9999V22.9999C20.6665 22.7333 20.7998 22.5333 20.9998 22.3999L24.3332 20.3999C24.3998 20.3333 24.5332 20.3333 24.6665 20.3333C24.7998 20.3333 24.9332 20.3333 24.9998 20.3999L28.3332 22.3999C28.5332 22.5333 28.6665 22.7333 28.6665 22.9999V26.9999C28.6665 27.2666 28.5332 27.4666 28.3332 27.5999L24.9998 29.5999C24.9332 29.6666 24.7998 29.6666 24.6665 29.6666ZM21.9998 26.5999L24.6665 28.1999L27.3332 26.5999V23.3333L24.6665 21.7333L21.9998 23.3333V26.5999Z" fill="#FFCC2A"/>
<path d="M24.6667 35C24.5333 35 24.4667 35 24.3333 34.9333L16.3333 30.2667C16.1333 30.1333 16 29.9333 16 29.6667V20.3333C16 20.0667 16.1333 19.8667 16.3333 19.7333L24.3333 15.0667C24.4667 15 24.5333 15 24.6667 15C24.8 15 24.8667 15 25 15.0667L33 19.7333L32.3333 20.8667L24.6667 16.4667L17.3333 20.7333V29.3333L24.6667 33.6L32 29.3333V24.3333H33.3333V29.6667C33.3333 29.9333 33.2 30.1333 33 30.2667L25 34.9333C24.8667 35 24.8 35 24.6667 35Z" fill="#FFCC2A"/>
<path d="M24.6668 15C24.8002 15 24.8668 15 25.0002 15.0667L33.0002 19.7333C33.2002 19.8667 33.3335 20.0667 33.3335 20.3333L33.3335 29.6667C33.3335 29.9333 33.2002 30.1333 33.0002 30.2667L25.0002 34.9333C24.8668 35 24.8002 35 24.6668 35C24.5335 35 24.4668 35 24.3335 34.9333L16.3335 30.2667L17.0002 29.1333L24.6668 33.5333L32.0002 29.2667L32.0002 20.6667L24.6668 16.4L17.3335 20.6667L17.3335 25.6667L16.0002 25.6667L16.0002 20.3333C16.0002 20.0667 16.1335 19.8667 16.3335 19.7333L24.3335 15.0667C24.4668 15 24.5335 15 24.6668 15Z" fill="#FFCC2A"/>
</svg>
