<svg width="24" height="24" viewBox="0 0 24 24" fill="none" xmlns="http://www.w3.org/2000/svg">
<path d="M12 15.6721L19.6066 23.2787C20.0874 23.7596 20.6995 24 21.4426 24C22.1858 24 22.7978 23.7596 23.2787 23.2787C23.7596 22.7978 24 22.1858 24 21.4426C24 20.6995 23.7596 20.0874 23.2787 19.6066L15.6721 12L23.2787 4.39344C23.7596 3.91257 24 3.30054 24 2.55738C24 1.81421 23.7596 1.20218 23.2787 0.72131C22.7978 0.240436 22.1858 0 21.4426 0C20.6995 0 20.0874 0.240436 19.6066 0.72131L12 8.32787L4.39344 0.72131C3.91257 0.240436 3.30054 0 2.55738 0C1.81421 0 1.20218 0.240436 0.72131 0.72131C0.240436 1.20218 0 1.81421 0 2.55738C0 3.30054 0.240436 3.91257 0.72131 4.39344L8.32787 12L0.72131 19.6066C0.240436 20.0874 0 20.6995 0 21.4426C0 22.1858 0.240436 22.7978 0.72131 23.2787C1.20218 23.7596 1.81421 24 2.55738 24C3.30054 24 3.91257 23.7596 4.39344 23.2787L12 15.6721Z" fill="#FD4C5C"/>
</svg>
