<svg width="81" height="80" viewBox="0 0 81 80" fill="none" xmlns="http://www.w3.org/2000/svg">
<circle cx="40.5" cy="40" r="40" fill="#FFCB2A"/>
<path d="M54.4655 44.1851L51.4785 41.1981V37.2412C51.4751 34.5067 50.4579 31.8706 48.6236 29.8427C46.7892 27.8147 44.2681 26.5389 41.5477 26.262V24H39.3408V26.262C36.6204 26.5389 34.0992 27.8147 32.2649 29.8427C30.4306 31.8706 29.4133 34.5067 29.4099 37.2412V41.1981L26.4229 44.1851C26.216 44.392 26.0997 44.6726 26.0996 44.9652V48.2755C26.0996 48.5681 26.2159 48.8488 26.4228 49.0557C26.6297 49.2627 26.9104 49.3789 27.203 49.3789H34.9271V50.2363C34.9031 51.6361 35.3965 52.9956 36.3127 54.0542C37.229 55.1128 38.5037 55.7961 39.8925 55.973C40.6596 56.0491 41.4341 55.9638 42.1662 55.7226C42.8984 55.4813 43.5719 55.0895 44.1435 54.5724C44.7151 54.0552 45.1722 53.4241 45.4853 52.7197C45.7983 52.0153 45.9605 51.2532 45.9614 50.4824V49.3789H53.6854C53.9781 49.3789 54.2587 49.2627 54.4656 49.0557C54.6726 48.8488 54.7888 48.5681 54.7888 48.2755V44.9652C54.7888 44.6726 54.6725 44.392 54.4655 44.1851ZM43.7545 50.4824C43.7545 51.3603 43.4058 52.2023 42.785 52.8231C42.1642 53.4439 41.3222 53.7927 40.4442 53.7927C39.5663 53.7927 38.7243 53.4439 38.1035 52.8231C37.4827 52.2023 37.1339 51.3603 37.1339 50.4824V49.3789H43.7545V50.4824ZM52.582 47.1721H28.3065V45.422L31.2935 42.435C31.5004 42.2281 31.6167 41.9475 31.6168 41.6549V37.2412C31.6168 34.9 32.5468 32.6547 34.2023 30.9992C35.8577 29.3438 38.103 28.4137 40.4442 28.4137C42.7854 28.4137 45.0307 29.3438 46.6862 30.9992C48.3416 32.6547 49.2717 34.9 49.2717 37.2412V41.6549C49.2717 41.9475 49.388 42.2281 49.595 42.435L52.582 45.422V47.1721Z" fill="white"/>
</svg>
