<svg width="81" height="80" viewBox="0 0 81 80" fill="none" xmlns="http://www.w3.org/2000/svg">
<circle cx="40.5" cy="40" r="40" fill="#FFCB2A"/>
<path d="M40.5003 46.4004C31.2843 46.4004 29.6523 37.2164 29.3643 29.93C29.2827 27.9044 29.2427 26.89 30.0043 25.954C30.7643 25.0164 31.6747 24.8628 33.4971 24.5556C35.8121 24.1762 38.1546 23.9905 40.5003 24.0004C43.3547 24.0004 45.7051 24.2516 47.5035 24.5556C49.3259 24.8628 50.2363 25.0164 50.9979 25.954C51.7595 26.8916 51.7179 27.9044 51.6379 29.93C51.3499 37.2148 49.7179 46.4004 40.5019 46.4004H40.5003Z" stroke="white" stroke-width="1.5"/>
<path d="M38.9004 33.6002L41.3004 31.2002V37.6002" stroke="white" stroke-width="1.5" stroke-linecap="round" stroke-linejoin="round"/>
<path d="M51.7 28.7998L53.2184 29.3054C54.8024 29.8334 55.5944 30.0974 56.0472 30.7262C56.5 31.355 56.5 32.1902 56.5 33.859V33.9758C56.5 35.3518 56.5 36.0414 56.1688 36.6046C55.8376 37.1678 55.2344 37.5022 54.0312 38.1726L49.3 40.7998M29.3 28.7998L27.7816 29.3054C26.1976 29.8334 25.4056 30.0974 24.9528 30.7262C24.5 31.355 24.5 32.1918 24.5 33.859V33.9758C24.5 35.3518 24.5 36.0414 24.8312 36.6046C25.1624 37.1678 25.7656 37.5022 26.9688 38.1726L31.7 40.7998" stroke="white" stroke-width="1.5"/>
<path d="M40.5 46.3999V51.1999" stroke="white" stroke-width="1.5" stroke-linecap="round"/>
<path d="M46.1004 56H34.9004L35.4444 53.2864C35.5169 52.9238 35.7127 52.5975 35.9985 52.363C36.2844 52.1285 36.6426 52.0002 37.0124 52H43.9884C44.3581 52.0002 44.7164 52.1285 45.0023 52.363C45.2881 52.5975 45.4839 52.9238 45.5564 53.2864L46.1004 56Z" stroke="white" stroke-width="1.5" stroke-linecap="round" stroke-linejoin="round"/>
<path d="M50.1004 56H30.9004" stroke="white" stroke-width="1.5" stroke-linecap="round"/>
</svg>
