<svg width="50" height="50" viewBox="0 0 50 50" fill="none" xmlns="http://www.w3.org/2000/svg">
<circle opacity="0.1" cx="25" cy="25" r="25" fill="#005985"/>
<path d="M32.7683 29.7581C32.5222 29.7579 32.2799 29.8191 32.0633 29.9362L30.1619 28.1109H28.5903C29.2728 27.3172 29.675 26.3209 29.735 25.2758H31.0544C31.1234 25.6399 31.3259 25.9652 31.6221 26.1879C31.9183 26.4107 32.287 26.515 32.656 26.4803C33.025 26.4456 33.3678 26.2745 33.6173 26.0004C33.8668 25.7264 34.0051 25.3691 34.0051 24.9984C34.0051 24.6278 33.8668 24.2705 33.6173 23.9964C33.3678 23.7224 33.025 23.5513 32.656 23.5166C32.287 23.4819 31.9183 23.5861 31.6221 23.8089C31.3259 24.0317 31.1234 24.3569 31.0544 24.7211H29.735C29.675 23.6761 29.2728 22.6799 28.5905 21.8861H30.1621L32.0633 20.0607C32.3906 20.2379 32.7723 20.2866 33.1336 20.1973C33.4949 20.108 33.8099 19.8872 34.017 19.5779C34.2241 19.2687 34.3084 18.8934 34.2534 18.5253C34.1984 18.1572 34.0081 17.8228 33.7197 17.5876C33.4313 17.3524 33.0655 17.2332 32.6939 17.2534C32.3223 17.2736 31.9715 17.4317 31.7103 17.6968C31.449 17.9618 31.2961 18.3148 31.2813 18.6867C31.2665 19.0586 31.391 19.4226 31.6303 19.7075L29.9389 21.3315H28.0308C27.2423 20.6667 26.2595 20.2755 25.2299 20.2166V17.9511C25.5941 17.882 25.9194 17.6796 26.1422 17.3833C26.365 17.0871 26.4693 16.7183 26.4346 16.3493C26.3999 15.9802 26.2288 15.6374 25.9547 15.3878C25.6806 15.1383 25.3233 15 24.9526 15C24.5819 15 24.2245 15.1383 23.9504 15.3878C23.6763 15.6374 23.5052 15.9802 23.4705 16.3493C23.4358 16.7183 23.5401 17.0871 23.7629 17.3833C23.9857 17.6796 24.311 17.882 24.6752 17.9511V20.2166C23.6454 20.2754 22.6625 20.6666 21.8739 21.3315H19.9742L18.2985 19.5827C18.5098 19.2789 18.6002 18.9071 18.5519 18.5401C18.5036 18.1731 18.3201 17.8373 18.0374 17.5985C17.7546 17.3596 17.3929 17.2348 17.023 17.2485C16.6532 17.2622 16.3017 17.4134 16.0374 17.6725C15.7731 17.9317 15.6149 18.2801 15.5939 18.6496C15.5729 19.0192 15.6905 19.3833 15.9237 19.6707C16.157 19.9581 16.489 20.1482 16.855 20.2037C17.2209 20.2593 17.5944 20.1763 17.9024 19.971L19.7373 21.8865H21.3156C20.6332 22.6802 20.231 23.6765 20.1711 24.7215H17.9507C17.8816 24.3573 17.6792 24.032 17.383 23.8093C17.0868 23.5865 16.7181 23.4823 16.3491 23.5169C15.9801 23.5516 15.6373 23.7227 15.3878 23.9968C15.1383 24.2709 15 24.6282 15 24.9988C15 25.3694 15.1383 25.7267 15.3878 26.0008C15.6373 26.2749 15.9801 26.446 16.3491 26.4806C16.7181 26.5153 17.0868 26.4111 17.383 26.1883C17.6792 25.9655 17.8816 25.6403 17.9507 25.2761H20.1711C20.231 26.3212 20.6332 27.3175 21.3156 28.1113H19.7373L17.9024 30.0262C17.5927 29.8192 17.2168 29.7353 16.8484 29.7909C16.4801 29.8465 16.1457 30.0376 15.9108 30.3268C15.6759 30.6159 15.5573 30.9823 15.5784 31.3543C15.5994 31.7262 15.7585 32.0769 16.0246 32.3377C16.2906 32.5986 16.6444 32.7507 17.0167 32.7644C17.389 32.778 17.753 32.6523 18.0374 32.4117C18.3219 32.1711 18.5063 31.833 18.5546 31.4636C18.6029 31.0942 18.5115 30.7201 18.2985 30.4145L19.9742 28.6656H21.8739C22.6624 29.3303 23.6451 29.7215 24.6747 29.7805V32.0486C24.3104 32.1176 23.9851 32.3201 23.7622 32.6164C23.5394 32.9127 23.4351 33.2814 23.4698 33.6505C23.5045 34.0196 23.6756 34.3625 23.9498 34.6121C24.2239 34.8617 24.5813 35 24.952 35C25.3227 35 25.6801 34.8617 25.9543 34.6121C26.2284 34.3625 26.3996 34.0196 26.4342 33.6505C26.4689 33.2814 26.3646 32.9127 26.1418 32.6164C25.919 32.3201 25.5936 32.1176 25.2294 32.0486V29.7807C26.2592 29.7218 27.2422 29.3305 28.0308 28.6656H29.9387L31.6301 30.2893C31.4124 30.5487 31.2897 30.8746 31.2823 31.2132C31.2749 31.5518 31.3832 31.8828 31.5894 32.1515C31.7956 32.4201 32.0873 32.6104 32.4163 32.6908C32.7452 32.7713 33.0918 32.737 33.3987 32.5938C33.7056 32.4506 33.9544 32.2069 34.1041 31.9031C34.2537 31.5993 34.2953 31.2535 34.2218 30.9229C34.1483 30.5923 33.9642 30.2967 33.6999 30.0849C33.4356 29.8731 33.107 29.7578 32.7683 29.7581ZM32.5158 24.0647C32.7004 24.0648 32.8809 24.1195 33.0343 24.2221C33.1878 24.3247 33.3075 24.4705 33.3781 24.6411C33.4487 24.8117 33.4672 24.9993 33.4312 25.1804C33.3951 25.3615 33.3062 25.5278 33.1757 25.6583C33.0451 25.7889 32.8788 25.8778 32.6978 25.9138C32.5167 25.9498 32.329 25.9314 32.1584 25.8607C31.9879 25.7901 31.8421 25.6705 31.7395 25.517C31.6369 25.3635 31.5821 25.183 31.5821 24.9984C31.5824 24.7509 31.6809 24.5136 31.8559 24.3386C32.031 24.1635 32.2682 24.0651 32.5158 24.0647ZM32.7683 17.8168C32.953 17.8168 33.1335 17.8716 33.2871 17.9742C33.4406 18.0768 33.5603 18.2226 33.631 18.3932C33.7016 18.5638 33.7201 18.7516 33.6841 18.9327C33.6481 19.1138 33.5591 19.2802 33.4286 19.4108C33.298 19.5414 33.1316 19.6303 32.9505 19.6663C32.7694 19.7023 32.5816 19.6838 32.411 19.6132C32.2404 19.5425 32.0946 19.4228 31.992 19.2693C31.8894 19.1157 31.8346 18.9352 31.8346 18.7505C31.835 18.503 31.9335 18.2657 32.1085 18.0907C32.2835 17.9157 32.5208 17.8172 32.7683 17.8168ZM17.0782 19.6658C16.8935 19.6657 16.7131 19.6109 16.5596 19.5082C16.4061 19.4056 16.2864 19.2597 16.2158 19.0891C16.1452 18.9185 16.1268 18.7308 16.1628 18.5497C16.1989 18.3686 16.2879 18.2022 16.4185 18.0717C16.5491 17.9412 16.7154 17.8523 16.8965 17.8163C17.0777 17.7803 17.2654 17.7988 17.436 17.8695C17.6066 17.9401 17.7524 18.0598 17.8549 18.2134C17.9575 18.3669 18.0123 18.5474 18.0123 18.7321C18.0113 18.8844 17.9725 19.034 17.8995 19.1677L17.5001 19.5504L17.5064 19.557C17.3745 19.6274 17.2276 19.6647 17.0782 19.6658ZM17.0782 32.1983C16.8935 32.1983 16.7129 32.1435 16.5594 32.0408C16.4058 31.9382 16.2862 31.7923 16.2155 31.6216C16.1449 31.451 16.1264 31.2632 16.1625 31.0821C16.1985 30.9009 16.2875 30.7345 16.4181 30.6039C16.5488 30.4734 16.7152 30.3844 16.8964 30.3484C17.0775 30.3124 17.2653 30.331 17.4359 30.4017C17.6066 30.4724 17.7524 30.5921 17.855 30.7457C17.9576 30.8993 18.0123 31.0799 18.0123 31.2646C18.012 31.5123 17.9135 31.7497 17.7384 31.9248C17.5633 32.0999 17.3258 32.1981 17.0782 32.1983ZM24.0187 16.4899C24.0186 16.3051 24.0733 16.1245 24.1759 15.9709C24.2785 15.8173 24.4243 15.6975 24.595 15.6268C24.7656 15.556 24.9534 15.5375 25.1346 15.5735C25.3158 15.6095 25.4822 15.6985 25.6129 15.8291C25.7435 15.9597 25.8325 16.1261 25.8685 16.3073C25.9046 16.4885 25.8861 16.6763 25.8154 16.8469C25.7447 17.0176 25.6249 17.1635 25.4713 17.2661C25.3177 17.3687 25.1371 17.4234 24.9524 17.4234C24.7049 17.4231 24.4676 17.3247 24.2925 17.1497C24.1175 16.9747 24.019 16.7374 24.0187 16.4899ZM16.4888 25.9321C16.3042 25.932 16.1238 25.8771 15.9703 25.7745C15.8169 25.6718 15.6974 25.526 15.6268 25.3554C15.5563 25.1848 15.5379 24.9971 15.574 24.8161C15.6101 24.6351 15.699 24.4688 15.8296 24.3383C15.9602 24.2078 16.1265 24.119 16.3075 24.083C16.4886 24.047 16.6762 24.0655 16.8468 24.1362C17.0173 24.2068 17.1631 24.3264 17.2657 24.4799C17.3682 24.6334 17.423 24.8138 17.423 24.9984C17.4227 25.2461 17.3242 25.4835 17.149 25.6585C16.9739 25.8336 16.7364 25.932 16.4888 25.9321ZM24.9529 20.7625C25.7908 20.7625 26.6098 21.0109 27.3064 21.4764C28.0031 21.9418 28.5461 22.6034 28.8667 23.3775C29.1873 24.1515 29.2712 25.0032 29.1078 25.825C28.9444 26.6467 28.5409 27.4015 27.9485 27.994C27.356 28.5864 26.6012 28.9898 25.7795 29.1533C24.9578 29.3167 24.106 29.2328 23.332 28.9122C22.5579 28.5916 21.8963 28.0486 21.4309 27.3519C20.9654 26.6553 20.717 25.8363 20.7171 24.9984C20.7184 23.8754 21.1651 22.7988 21.9592 22.0047C22.7533 21.2106 23.8299 20.7639 24.9529 20.7625ZM25.8861 33.5098C25.8862 33.6945 25.8315 33.875 25.7289 34.0287C25.6264 34.1823 25.4805 34.302 25.3099 34.3728C25.1393 34.4435 24.9515 34.4621 24.7704 34.4261C24.5892 34.3902 24.4228 34.3013 24.2921 34.1707C24.1614 34.0402 24.0724 33.8738 24.0363 33.6927C24.0002 33.5115 24.0186 33.3238 24.0893 33.1531C24.1599 32.9824 24.2795 32.8365 24.4331 32.7338C24.5866 32.6312 24.7671 32.5763 24.9518 32.5762C25.1994 32.5765 25.4368 32.6749 25.6119 32.8499C25.7871 33.0249 25.8857 33.2622 25.8861 33.5098ZM32.7676 32.18C32.583 32.1799 32.4026 32.125 32.2492 32.0223C32.0958 31.9197 31.9762 31.7738 31.9057 31.6033C31.8351 31.4327 31.8167 31.245 31.8528 31.064C31.8889 30.883 31.9779 30.7167 32.1084 30.5862C32.239 30.4557 32.4053 30.3669 32.5864 30.3309C32.7674 30.2949 32.9551 30.3134 33.1256 30.384C33.2962 30.4547 33.4419 30.5743 33.5445 30.7278C33.6471 30.8813 33.7018 31.0617 33.7019 31.2463C33.7016 31.4938 33.6031 31.7311 33.4281 31.9061C33.2531 32.0812 33.0159 32.1797 32.7683 32.18H32.7676Z" fill="#005985"/>
<path d="M23.6672 25.837H24.6539L24.9198 26.7219H25.7583L24.6893 23.2751H23.6672L22.6133 26.7221H23.4211L23.6672 25.837ZM23.9841 24.5228C24.0395 24.3239 24.0915 24.0626 24.1423 23.8583H24.1531C24.2039 24.0617 24.2655 24.3183 24.3265 24.5228L24.5413 25.2542H23.779L23.9841 24.5228Z" fill="#005985"/>
<path d="M27.0002 23.2751H26.2178V26.7221H27.0002V23.2751Z" fill="#005985"/>
</svg>
