<svg width="50" height="50" viewBox="0 0 50 50" fill="none" xmlns="http://www.w3.org/2000/svg">
<circle opacity="0.1" cx="25" cy="25" r="25" fill="#005985"/>
<path d="M19.6064 30.0259C19.5979 30.4436 19.2841 30.7874 18.8356 30.7966H15.7534C15.1603 30.7851 14.7442 29.992 15.1819 29.509C15.3257 29.3505 15.5357 29.2597 15.7534 29.2551H18.0649V27.7144H15.7534C15.0673 27.7006 14.6865 26.5921 15.4272 26.246C15.5288 26.1983 15.6396 26.1752 15.7534 26.1729C16.7911 26.1729 17.8287 26.1537 18.8656 26.1737C19.2725 26.1975 19.5979 26.5098 19.6064 26.9437V27.7144H21.1471V23.0907H19.6064V23.8614C19.6086 23.9426 19.5958 24.0234 19.5687 24.0999C19.5151 24.2526 19.4162 24.3854 19.2852 24.4805C19.1543 24.5756 18.9974 24.6285 18.8356 24.6322H15.7534C15.0673 24.6183 14.6865 23.5099 15.4272 23.1638C15.5288 23.1161 15.6396 23.093 15.7534 23.0907H18.0649V21.55H15.7534C15.065 21.5361 14.7034 20.42 15.4272 20.0815C15.5288 20.0338 15.6396 20.0108 15.7534 20.0092C16.7911 20.0092 17.8287 19.9892 18.8656 20.0092C19.2725 20.0331 19.5979 20.3461 19.6064 20.7792V21.55H21.9178L21.9609 21.5515C22.0477 21.5538 22.1332 21.5731 22.2124 21.6084C22.4947 21.7253 22.6778 21.9515 22.6886 22.3207V24.6322H27.3115V22.3207C27.309 22.2338 27.3236 22.1473 27.3546 22.0661C27.4608 21.7646 27.6985 21.5607 28.0823 21.55H30.3938V20.7792C30.3915 20.6983 30.4043 20.6177 30.4315 20.5415C30.5307 20.2354 30.8345 20.0154 31.1645 20.0092C32.2022 20.0092 33.2398 19.9885 34.2775 20.0092C34.9452 20.0492 35.3075 21.1338 34.5729 21.4777C34.4703 21.524 34.3593 21.5487 34.2467 21.55H31.9353V23.0907H34.2467C34.8229 23.1022 35.2282 23.8499 34.8575 24.3314C34.7844 24.4238 34.6917 24.4986 34.586 24.5507C34.4804 24.6027 34.3645 24.6305 34.2467 24.6322H31.1645C30.9602 24.6318 30.7644 24.5504 30.62 24.406C30.4755 24.2615 30.3942 24.0657 30.3938 23.8614V23.0907H28.853V27.7144H30.3938V26.9437C30.3915 26.8628 30.4043 26.7822 30.4315 26.706C30.5307 26.3998 30.8345 26.1798 31.1645 26.1729C32.2022 26.1729 33.2398 26.1529 34.2775 26.1737C34.9521 26.2144 35.2959 27.3036 34.5729 27.6421C34.4703 27.6885 34.3593 27.7131 34.2467 27.7144H31.9353V29.2551H34.2467C34.9329 29.269 35.3136 30.3774 34.5729 30.7243C34.4703 30.7707 34.3593 30.7953 34.2467 30.7966H31.1645C31.0834 30.7988 31.0026 30.7861 30.9261 30.7589C30.7733 30.7054 30.6405 30.6066 30.5453 30.4756C30.4502 30.3446 30.3973 30.1877 30.3938 30.0259V29.2551H28.0823C27.9954 29.2577 27.9089 29.2431 27.8277 29.2121C27.5262 29.1067 27.3223 28.869 27.3115 28.4852V26.1729H22.6886V28.4852C22.6911 28.5718 22.6765 28.658 22.6455 28.739C22.5394 29.0413 22.3017 29.2444 21.9178 29.2551H19.6064V30.0259Z" fill="#005985"/>
</svg>
