<svg width="50" height="50" viewBox="0 0 50 50" fill="none" xmlns="http://www.w3.org/2000/svg">
<circle opacity="0.1" cx="25" cy="25" r="25" fill="#005985"/>
<path d="M18.3511 19.2452C18.3221 19.2742 18.299 19.3087 18.2833 19.3466C18.2676 19.3845 18.2595 19.4251 18.2595 19.4662C18.2595 19.5072 18.2676 19.5479 18.2833 19.5858C18.299 19.6237 18.3221 19.6582 18.3511 19.6872L21.1091 22.4467C21.1677 22.5053 21.2472 22.5382 21.3301 22.5382C21.4129 22.5382 21.4924 22.5053 21.551 22.4467C21.6096 22.3881 21.6426 22.3086 21.6426 22.2257C21.6426 22.1428 21.6096 22.0633 21.551 22.0047L18.7915 19.2452C18.733 19.187 18.6538 19.1544 18.5713 19.1544C18.4888 19.1544 18.4096 19.187 18.3511 19.2452ZM27.2653 20.7679V16.9152C27.2653 16.8323 27.2324 16.7529 27.1738 16.6943C27.1152 16.6357 27.0358 16.6028 26.9529 16.6028C26.8701 16.6028 26.7906 16.6357 26.7321 16.6943C26.6735 16.7529 26.6406 16.8323 26.6406 16.9152V20.7679C26.6406 20.8507 26.6735 20.9301 26.7321 20.9887C26.7906 21.0473 26.8701 21.0802 26.9529 21.0802C27.0358 21.0802 27.1152 21.0473 27.1738 20.9887C27.2324 20.9301 27.2653 20.8507 27.2653 20.7679ZM22.4225 15.2348C22.4122 15.195 22.3942 15.1576 22.3695 15.1248C22.3448 15.092 22.3139 15.0643 22.2785 15.0434C22.2431 15.0225 22.204 15.0088 22.1633 15.0031C22.1226 14.9973 22.0812 14.9996 22.0414 15.0099C22.0016 15.0202 21.9642 15.0381 21.9314 15.0628C21.8986 15.0875 21.8709 15.1185 21.85 15.1539C21.8292 15.1892 21.8155 15.2284 21.8097 15.2691C21.8039 15.3098 21.8063 15.3512 21.8165 15.391L22.7535 19.139C22.7638 19.1788 22.7818 19.2162 22.8065 19.249C22.8312 19.2818 22.8621 19.3095 22.8975 19.3304C22.9329 19.3513 22.972 19.365 23.0127 19.3707C23.0534 19.3765 23.0948 19.3742 23.1346 19.3639C23.1744 19.3536 23.2118 19.3357 23.2446 19.311C23.2774 19.2863 23.3051 19.2553 23.3259 19.22C23.3468 19.1846 23.3605 19.1454 23.3663 19.1047C23.372 19.0641 23.3697 19.0226 23.3595 18.9828L22.4225 15.2348ZM18.3043 26.3665C19.285 27.7721 19.2772 28.4061 19.271 29.0214C19.2241 33.4941 22.3241 34.8762 24.1653 34.9871C24.3059 34.9949 24.4417 34.9996 24.5776 34.9996C25.429 35.0097 26.2729 34.8391 27.0536 34.4991C27.8343 34.1591 28.534 33.6574 29.1065 33.0272L30.1294 31.8996L30.1466 31.8793L30.6541 31.3187C30.8338 31.1388 30.9618 30.9138 31.0244 30.6674C31.0871 30.421 31.0822 30.1623 31.0103 29.9184C30.9384 29.6746 30.8021 29.4546 30.6158 29.2816C30.4294 29.1087 30.1999 28.9891 29.9514 28.9355C30.0002 28.7583 30.0099 28.5725 29.98 28.3911C29.95 28.2097 29.8811 28.037 29.7779 27.8848C29.6747 27.7327 29.5397 27.6047 29.3823 27.5097C29.2249 27.4148 29.0487 27.3551 28.866 27.3348C28.9168 27.1945 28.9432 27.0467 28.9441 26.8975C28.9449 26.5718 28.8327 26.2559 28.6264 26.0038C28.4202 25.7517 28.1328 25.5791 27.8134 25.5154L29.5079 23.8147C29.6408 23.6822 29.746 23.5246 29.8174 23.3509C29.8887 23.1773 29.9247 22.9913 29.9234 22.8036C29.922 22.6159 29.8833 22.4303 29.8095 22.2578C29.7356 22.0852 29.6282 21.9291 29.4933 21.7985C29.3585 21.6679 29.199 21.5655 29.0242 21.4972C28.8493 21.4289 28.6626 21.3962 28.475 21.4008C28.2874 21.4055 28.1025 21.4475 27.9313 21.5244C27.76 21.6012 27.6058 21.7114 27.4777 21.8486C25.6208 23.8303 23.3126 26.0854 22.4022 26.4556C21.8712 26.6742 21.7431 26.504 21.3324 25.8309C21.0471 25.3035 20.6682 24.8325 20.2142 24.441C19.6739 24.0021 19.0383 23.9896 18.512 24.4066C17.917 24.8767 17.8311 25.6856 18.3043 26.3665ZM29.65 29.5305C29.7536 29.5301 29.8562 29.5504 29.952 29.59C30.0477 29.6297 30.1346 29.6881 30.2075 29.7617C30.2811 29.8363 30.3392 29.9247 30.3786 30.0218C30.4179 30.119 30.4376 30.2229 30.4366 30.3277C30.4355 30.4325 30.4138 30.5361 30.3726 30.6324C30.3314 30.7288 30.2716 30.816 30.1966 30.8892L29.7015 31.4342C29.5689 31.4969 29.4203 31.5174 29.2757 31.4931C29.1311 31.4688 28.9974 31.4009 28.8926 31.2984L28.8644 31.2687C28.7367 31.1434 28.66 30.9753 28.649 30.7968C28.638 30.6182 28.6937 30.4419 28.8051 30.302L29.5859 29.5212L29.65 29.5305ZM29.1815 28.1344C29.2971 28.2491 29.3652 28.4032 29.3722 28.5659C29.3791 28.7286 29.3244 28.8879 29.2189 29.012C29.2059 29.024 29.1939 29.0371 29.183 29.0511L28.2866 29.9475C28.16 29.9938 28.023 30.0037 27.891 29.9761C27.7591 29.9485 27.6375 29.8845 27.5401 29.7913L27.5026 29.7538C27.3797 29.6262 27.3075 29.4581 27.2994 29.2811C27.2914 29.104 27.3481 28.9301 27.4589 28.7918C27.5839 28.695 28.107 28.2812 28.385 28.0422C28.5087 27.9673 28.6538 27.9357 28.7975 27.9524C28.9411 27.9691 29.0751 28.0331 29.1783 28.1344H29.1815ZM28.0883 26.3369C28.1619 26.4098 28.2202 26.4967 28.2599 26.5924C28.2996 26.6881 28.3198 26.7908 28.3194 26.8944C28.299 27.1481 28.1815 27.3842 27.9915 27.5534C27.8009 27.719 27.3902 28.0485 27.0872 28.2859C26.9581 28.3227 26.8213 28.3242 26.6914 28.2901C26.5614 28.2561 26.443 28.1877 26.3486 28.0922L26.3283 28.0719C26.1861 27.9296 26.1062 27.7366 26.1062 27.5355C26.1062 27.3343 26.1861 27.1413 26.3283 26.999L27.0622 26.265C27.2127 26.1509 27.3993 26.0952 27.5877 26.1081C27.776 26.121 27.9533 26.2017 28.0867 26.3353L28.0883 26.3369ZM18.9008 24.8892C19.2007 24.6518 19.5021 24.6612 19.8207 24.9188C20.2182 25.2654 20.5494 25.6814 20.7983 26.1463C20.9432 26.4174 21.125 26.6671 21.3386 26.8881C21.3445 26.8968 21.3507 26.9051 21.3574 26.9131C21.3839 26.9412 21.9821 27.5956 21.373 28.5467C21.332 28.6164 21.3196 28.6993 21.3385 28.778C21.3573 28.8566 21.406 28.9249 21.4742 28.9684C21.5424 29.0119 21.6248 29.0273 21.7041 29.0112C21.7834 28.9952 21.8534 28.949 21.8993 28.8824C22.0716 28.6353 22.1868 28.353 22.2365 28.0559C22.2862 27.7587 22.2692 27.4543 22.1866 27.1646C22.3413 27.1434 22.4926 27.1019 22.6364 27.0412C23.8655 26.5368 26.7468 23.5461 27.9305 22.2827C28.0025 22.2052 28.0894 22.143 28.186 22.1001C28.2826 22.0571 28.387 22.0342 28.4928 22.0328C28.5986 22.0312 28.7038 22.0508 28.802 22.0905C28.9001 22.1302 28.9894 22.1892 29.0643 22.264C29.1378 22.3372 29.196 22.4242 29.2358 22.52C29.2755 22.6158 29.296 22.7186 29.296 22.8223C29.296 22.926 29.2755 23.0287 29.2358 23.1245C29.196 23.2203 29.1378 23.3073 29.0643 23.3806L25.8847 26.5539C25.7555 26.6825 25.653 26.8353 25.5831 27.0036C25.5131 27.1719 25.4771 27.3524 25.4771 27.5347C25.4771 27.7169 25.5131 27.8974 25.5831 28.0657C25.653 28.234 25.7555 28.3869 25.8847 28.5154L25.9019 28.5326C26.117 28.7483 26.3978 28.8862 26.6999 28.9246C26.6455 29.15 26.6496 29.3855 26.7119 29.6089C26.7743 29.8322 26.8927 30.0359 27.056 30.2005L27.0685 30.2114L27.081 30.2239C27.3344 30.475 27.6769 30.6154 28.0336 30.6143C28.0123 30.8139 28.036 31.0158 28.103 31.205C28.1701 31.3941 28.2787 31.5659 28.4209 31.7075L28.4443 31.7341C28.625 31.9143 28.8529 32.0399 29.1018 32.0964L28.6333 32.6133L28.6208 32.6274C28.0616 33.2294 27.3742 33.6979 26.6095 33.9982C25.8447 34.2985 25.0222 34.423 24.2028 34.3624C23.3981 34.2926 22.6233 34.0243 21.9477 33.5816C21.9961 33.5816 22.0461 33.5816 22.0961 33.5816H22.2288C23.0097 33.5316 23.7233 33.0584 24.3605 32.176C24.4065 32.1086 24.4243 32.0259 24.4101 31.9456C24.3959 31.8653 24.3508 31.7937 24.2845 31.7461C24.2182 31.6986 24.1359 31.6789 24.0553 31.6912C23.9746 31.7036 23.902 31.747 23.853 31.8122C23.3329 32.5368 22.7754 32.9241 22.1944 32.9631C21.3839 33.0162 20.7608 32.3681 20.7514 32.3588C20.7376 32.3443 20.7225 32.3312 20.7062 32.3197C20.2173 31.5482 19.8816 30.4894 19.8972 29.0261C19.9066 28.2 19.8316 27.4535 18.8181 26.0042C18.5823 25.6731 18.5182 25.1953 18.9008 24.8892Z" fill="#005985"/>
<path d="M23.764 21.3659L23.0737 21.4658L23.5735 21.9531L23.4548 22.6402L24.0717 22.3154L24.6885 22.6402L24.5698 21.9531L25.0696 21.4658L24.3793 21.3659L24.0717 20.7412L23.764 21.3659Z" fill="#005985"/>
<path d="M24.7681 17.6103L24.9789 18.0851L25.2288 17.6275L25.7457 17.5744L25.3881 17.1965L25.4974 16.6874L25.0273 16.9107L24.576 16.6499L24.6432 17.1668L24.2559 17.5151L24.7681 17.6103Z" fill="#005985"/>
<path d="M20.6123 17.4011L20.236 17.0435L20.1797 17.5604L19.7222 17.8087L20.1969 18.0211L20.2922 18.5333L20.6404 18.146L21.1574 18.2147L20.8966 17.7634L21.1214 17.2949L20.6123 17.4011Z" fill="#005985"/>
</svg>
