<svg width="50" height="50" viewBox="0 0 50 50" fill="none" xmlns="http://www.w3.org/2000/svg">
<circle opacity="0.1" cx="25" cy="25" r="25" fill="#005985"/>
<path d="M24.6323 29.331C21.9224 29.331 19.7178 27.1179 19.7178 24.3977C19.7178 21.6774 21.9224 19.4644 24.6323 19.4644C27.3422 19.4644 29.5468 21.6774 29.5468 24.3977C29.5468 27.1179 27.3422 29.331 24.6323 29.331ZM24.6323 20.8319C22.6765 20.8319 21.0853 22.4315 21.0853 24.3977C21.0853 26.3639 22.6765 27.9635 24.6323 27.9635C26.5881 27.9635 28.1793 26.3639 28.1793 24.3977C28.1793 22.4315 26.5881 20.8319 24.6323 20.8319Z" fill="#005985"/>
<path d="M23.4208 26.0874L22.1875 24.6482L23.2259 23.7584L23.9732 24.6304L26.0989 22.4561L27.0768 23.412L24.429 26.1205C24.3001 26.2523 23.8064 26.4389 23.4208 26.0874Z" fill="#005985"/>
<path d="M23.9703 34.8377C18.1723 32.1261 15.8663 25.694 16.006 19.6574C16.0131 19.3455 16.2313 19.0781 16.5358 19.0079C18.171 18.6309 19.4522 17.4549 19.4396 15.6856C19.438 15.3124 19.7495 15 20.1234 15H29.1442C29.518 15 29.8295 15.3122 29.828 15.6854C29.7919 17.35 31.0713 18.7348 32.6887 18.9995C33.0147 19.0528 33.2558 19.3312 33.2618 19.6609C33.3694 25.6197 30.746 31.8227 25.3298 34.7812C25.1019 34.9057 24.6857 35.1723 23.9703 34.8377ZM24.5261 33.5901C24.5733 33.611 24.6271 33.6086 24.6735 33.5833C26.3751 32.6538 31.839 28.9796 31.8975 20.2187C30.1295 19.7094 28.7478 18.2024 28.5003 16.3655H20.7674C20.5196 18.2038 19.1363 19.7114 17.3666 20.2197C17.357 25.4584 19.3942 31.3112 24.5261 33.5901C24.5733 33.6111 23.8038 33.2694 24.5261 33.5901Z" fill="#005985"/>
</svg>
