<svg width="50" height="50" viewBox="0 0 50 50" fill="none" xmlns="http://www.w3.org/2000/svg">
<circle opacity="0.1" cx="25" cy="25" r="25" fill="#005985"/>
<path d="M31.2869 30.5865C31.4261 30.5865 31.5653 30.5925 31.7045 30.5784C32.0272 30.5461 32.3257 30.4675 32.6101 30.3101C33.1184 30.0298 33.5098 29.5255 33.657 28.9647C33.77 28.5331 33.7296 28.055 33.7296 27.6133V24.3113C33.7296 23.8999 33.6267 23.4864 33.4069 23.1354C33.1003 22.6473 32.598 22.2681 32.0292 22.149C31.6016 22.0603 31.0731 22.0563 30.6556 22.1894C30.1049 22.3649 29.6067 22.7582 29.3505 23.2847C29.1872 23.6195 29.1105 23.9664 29.1105 24.3396V28.2991C29.1105 28.5795 29.1347 28.8639 29.2356 29.1281C29.4433 29.6687 29.8326 30.1427 30.3712 30.3767C30.6637 30.5078 30.9622 30.5824 31.2869 30.5865C31.6036 30.5885 31.9062 30.3061 31.8921 29.9813C31.8779 29.6505 31.6258 29.3782 31.2869 29.3762C31.2123 29.3762 31.1397 29.3702 31.0651 29.3601C31.1195 29.3682 31.172 29.3742 31.2264 29.3823C31.0913 29.3621 30.9622 29.3258 30.8371 29.2734L30.9824 29.3339C30.8936 29.2955 30.8069 29.2491 30.7262 29.1967C30.7222 29.1947 30.6616 29.1564 30.6616 29.1503C30.6616 29.1523 30.7948 29.2612 30.7121 29.1886C30.6758 29.1564 30.6395 29.1261 30.6052 29.0918C30.5749 29.0616 30.5447 29.0293 30.5164 28.995C30.4821 28.9547 30.4499 28.8841 30.5447 29.0353C30.5305 29.0131 30.5144 28.993 30.4983 28.9708C30.4438 28.8901 30.3994 28.8034 30.3611 28.7146L30.4216 28.8599C30.3692 28.7348 30.3329 28.6057 30.3127 28.4706C30.3208 28.525 30.3268 28.5775 30.3349 28.6319C30.3107 28.4443 30.3187 28.2507 30.3187 28.0611V24.7248C30.3187 24.503 30.3046 24.275 30.3349 24.0552C30.3268 24.1096 30.3208 24.1621 30.3127 24.2165C30.3329 24.0814 30.3692 23.9523 30.4216 23.8272L30.3611 23.9725C30.3994 23.8837 30.4458 23.797 30.4983 23.7163C30.5003 23.7123 30.5386 23.6518 30.5447 23.6518C30.5426 23.6518 30.4337 23.7849 30.5063 23.7022C30.5386 23.6659 30.5689 23.6296 30.6032 23.5953C30.6334 23.565 30.6657 23.5348 30.7 23.5065C30.7403 23.4722 30.8109 23.44 30.6596 23.5348C30.6818 23.5207 30.702 23.5045 30.7242 23.4884C30.8049 23.4339 30.8916 23.3895 30.9803 23.3512L30.8351 23.4117C30.9602 23.3593 31.0893 23.323 31.2244 23.3028C31.1699 23.3109 31.1175 23.3169 31.063 23.325C31.289 23.2947 31.5431 23.2947 31.771 23.325C31.7166 23.3169 31.6641 23.3109 31.6097 23.3028C31.7448 23.323 31.8739 23.3593 31.999 23.4117L31.8537 23.3512C31.9425 23.3895 32.0292 23.4359 32.1099 23.4884C32.1139 23.4904 32.1745 23.5287 32.1745 23.5348C32.1745 23.5328 32.0413 23.4238 32.124 23.4964C32.1603 23.5287 32.1966 23.559 32.2309 23.5933C32.2612 23.6235 32.2914 23.6558 32.3197 23.6901C32.354 23.7304 32.3862 23.801 32.2914 23.6497C32.3056 23.6719 32.3217 23.6921 32.3378 23.7143C32.3923 23.795 32.4367 23.8817 32.475 23.9705L32.4145 23.8252C32.4669 23.9503 32.5032 24.0794 32.5234 24.2145C32.5153 24.1601 32.5093 24.1076 32.5012 24.0532C32.5254 24.2408 32.5174 24.4344 32.5174 24.624V27.9602C32.5174 28.1821 32.5315 28.41 32.5012 28.6299C32.5093 28.5754 32.5153 28.523 32.5234 28.4685C32.5032 28.6037 32.4669 28.7328 32.4145 28.8578L32.475 28.7126C32.4367 28.8014 32.3903 28.8881 32.3378 28.9688C32.3358 28.9728 32.2975 29.0333 32.2914 29.0333C32.2935 29.0333 32.4024 28.9002 32.3298 28.9829C32.2975 29.0192 32.2672 29.0555 32.2329 29.0898C32.2027 29.1201 32.1704 29.1503 32.1361 29.1785C32.0958 29.2128 32.0252 29.2451 32.1765 29.1503C32.1543 29.1644 32.1341 29.1806 32.1119 29.1967C32.0312 29.2512 31.9445 29.2955 31.8558 29.3339L32.001 29.2734C31.8759 29.3258 31.7468 29.3621 31.6117 29.3823C31.6661 29.3742 31.7186 29.3682 31.7731 29.3601C31.6117 29.3823 31.4503 29.3762 31.2869 29.3762C30.9703 29.3762 30.6677 29.6546 30.6818 29.9813C30.6959 30.3081 30.9461 30.5865 31.2869 30.5865ZM19.1764 30.5865C19.3156 30.5865 19.4548 30.5925 19.594 30.5784C19.9167 30.5461 20.2152 30.4675 20.4996 30.3101C21.0079 30.0298 21.3992 29.5255 21.5465 28.9647C21.6594 28.5331 21.6191 28.055 21.6191 27.6133V24.3113C21.6191 23.8999 21.5162 23.4864 21.2964 23.1354C20.9898 22.6473 20.4875 22.2681 19.9187 22.149C19.4911 22.0603 18.9626 22.0563 18.5451 22.1894C17.9944 22.3649 17.4962 22.7582 17.24 23.2847C17.0766 23.6195 17 23.9664 17 24.3396V28.2991C17 28.5795 17.0242 28.8639 17.1251 29.1281C17.3328 29.6687 17.7221 30.1427 18.2607 30.3767C18.5531 30.5078 18.8517 30.5824 19.1764 30.5865C19.4931 30.5885 19.7957 30.3061 19.7815 29.9813C19.7674 29.6505 19.5153 29.3782 19.1764 29.3762C19.1018 29.3762 19.0292 29.3702 18.9545 29.3601C19.009 29.3682 19.0615 29.3742 19.1159 29.3823C18.9808 29.3621 18.8517 29.3258 18.7266 29.2734L18.8718 29.3339C18.7831 29.2955 18.6964 29.2491 18.6157 29.1967C18.6116 29.1947 18.5511 29.1564 18.5511 29.1503C18.5511 29.1523 18.6843 29.2612 18.6016 29.1886C18.5652 29.1564 18.5289 29.1261 18.4947 29.0918C18.4644 29.0616 18.4341 29.0293 18.4059 28.995C18.3716 28.9547 18.3393 28.8841 18.4341 29.0353C18.42 29.0131 18.4039 28.993 18.3877 28.9708C18.3333 28.8901 18.2889 28.8034 18.2506 28.7146L18.3111 28.8599C18.2587 28.7348 18.2223 28.6057 18.2022 28.4706C18.2102 28.525 18.2163 28.5775 18.2244 28.6319C18.2002 28.4443 18.2082 28.2507 18.2082 28.0611V24.7248C18.2082 24.503 18.1941 24.275 18.2244 24.0552C18.2163 24.1096 18.2102 24.1621 18.2022 24.2165C18.2223 24.0814 18.2587 23.9523 18.3111 23.8272L18.2506 23.9725C18.2889 23.8837 18.3353 23.797 18.3877 23.7163C18.3898 23.7123 18.4281 23.6518 18.4341 23.6518C18.4321 23.6518 18.3232 23.7849 18.3958 23.7022C18.4281 23.6659 18.4583 23.6296 18.4926 23.5953C18.5229 23.565 18.5552 23.5348 18.5895 23.5065C18.6298 23.4722 18.7004 23.44 18.5491 23.5348C18.5713 23.5207 18.5915 23.5045 18.6137 23.4884C18.6943 23.4339 18.7811 23.3895 18.8698 23.3512L18.7246 23.4117C18.8497 23.3593 18.9788 23.323 19.1139 23.3028C19.0594 23.3109 19.007 23.3169 18.9525 23.325C19.1784 23.2947 19.4326 23.2947 19.6605 23.325C19.6061 23.3169 19.5536 23.3109 19.4992 23.3028C19.6343 23.323 19.7634 23.3593 19.8885 23.4117L19.7432 23.3512C19.832 23.3895 19.9187 23.4359 19.9994 23.4884C20.0034 23.4904 20.0639 23.5287 20.0639 23.5348C20.0639 23.5328 19.9308 23.4238 20.0135 23.4964C20.0498 23.5287 20.0861 23.559 20.1204 23.5933C20.1507 23.6235 20.1809 23.6558 20.2092 23.6901C20.2435 23.7304 20.2757 23.801 20.1809 23.6497C20.195 23.6719 20.2112 23.6921 20.2273 23.7143C20.2818 23.795 20.3262 23.8817 20.3645 23.9705L20.304 23.8252C20.3564 23.9503 20.3927 24.0794 20.4129 24.2145C20.4048 24.1601 20.3988 24.1076 20.3907 24.0532C20.4149 24.2408 20.4068 24.4344 20.4068 24.624V27.9602C20.4068 28.1821 20.421 28.41 20.3907 28.6299C20.3988 28.5754 20.4048 28.523 20.4129 28.4685C20.3927 28.6037 20.3564 28.7328 20.304 28.8578L20.3645 28.7126C20.3262 28.8014 20.2798 28.8881 20.2273 28.9688C20.2253 28.9728 20.187 29.0333 20.1809 29.0333C20.1829 29.0333 20.2919 28.9002 20.2193 28.9829C20.187 29.0192 20.1567 29.0555 20.1224 29.0898C20.0922 29.1201 20.0599 29.1503 20.0256 29.1785C19.9853 29.2128 19.9147 29.2451 20.066 29.1503C20.0438 29.1644 20.0236 29.1806 20.0014 29.1967C19.9207 29.2512 19.834 29.2955 19.7452 29.3339L19.8905 29.2734C19.7654 29.3258 19.6363 29.3621 19.5012 29.3823C19.5556 29.3742 19.6081 29.3682 19.6625 29.3601C19.5012 29.3823 19.3398 29.3762 19.1764 29.3762C18.8597 29.3762 18.5572 29.6546 18.5713 29.9813C18.5854 30.3081 18.8376 30.5865 19.1764 30.5865Z" fill="#005985"/>
<path d="M18.2082 28.2771V23.6237C18.2082 23.188 18.2203 22.7543 18.2788 22.3207C18.2708 22.3751 18.2647 22.4276 18.2566 22.482C18.3494 21.8043 18.531 21.1427 18.7972 20.5134L18.7367 20.6586C18.89 20.2975 19.0715 19.9466 19.2773 19.6117C19.3781 19.4484 19.483 19.291 19.596 19.1357C19.6242 19.0954 19.6545 19.057 19.6827 19.0187C19.6928 19.0046 19.7049 18.9905 19.715 18.9764C19.7795 18.8896 19.6182 19.0994 19.6847 19.0147C19.7452 18.938 19.8058 18.8614 19.8703 18.7888C20.1184 18.4943 20.3907 18.2179 20.6791 17.9638C20.7497 17.9033 20.8203 17.8428 20.893 17.7822C20.9272 17.754 20.9615 17.7258 20.9958 17.6995C21.0301 17.6713 21.1168 17.6088 20.9575 17.7278C20.9797 17.7117 20.9999 17.6955 21.022 17.6794C21.1774 17.5624 21.3387 17.4494 21.5041 17.3445C21.8733 17.1085 22.2605 16.9048 22.6639 16.7334L22.5187 16.7939C23.148 16.5276 23.8096 16.3461 24.4874 16.2533C24.4329 16.2614 24.3805 16.2674 24.326 16.2755C25.0138 16.1827 25.7138 16.1827 26.4016 16.2755C26.3471 16.2674 26.2947 16.2614 26.2402 16.2533C26.918 16.3461 27.5796 16.5276 28.2089 16.7939L28.0637 16.7334C28.4247 16.8867 28.7757 17.0682 29.1105 17.2739C29.2739 17.3748 29.4312 17.4797 29.5865 17.5926C29.6269 17.6209 29.6652 17.6511 29.7035 17.6794C29.7177 17.6895 29.7318 17.7016 29.7459 17.7117C29.8326 17.7762 29.6229 17.6148 29.7076 17.6814C29.7842 17.7419 29.8609 17.8024 29.9335 17.867C30.228 18.1151 30.5043 18.3874 30.7585 18.6758C30.819 18.7464 30.8795 18.817 30.94 18.8896C30.9682 18.9239 30.9965 18.9582 31.0227 18.9925C31.0509 19.0268 31.1135 19.1135 30.9945 18.9542C31.0106 18.9764 31.0267 18.9965 31.0429 19.0187C31.1599 19.174 31.2728 19.3354 31.3777 19.5008C31.6137 19.8699 31.8174 20.2572 31.9889 20.6606L31.9284 20.5154C32.1946 21.1447 32.3762 21.8063 32.4689 22.4841C32.4609 22.4296 32.4548 22.3771 32.4468 22.3227C32.5073 22.7745 32.5174 23.2263 32.5174 23.6802V28.7834C32.5174 29.1707 32.5335 29.566 32.4831 29.9513C32.4911 29.8968 32.4972 29.8444 32.5053 29.7899C32.4609 30.1046 32.3762 30.4132 32.2551 30.7077L32.3156 30.5624C32.2229 30.7843 32.1079 30.9961 31.9748 31.1958C31.9425 31.2442 31.9082 31.2906 31.8759 31.337C31.8013 31.4419 31.9647 31.2281 31.8981 31.3088C31.882 31.3289 31.8658 31.3511 31.8477 31.3713C31.771 31.4641 31.6924 31.5508 31.6077 31.6355C31.5229 31.7202 31.4342 31.8009 31.3434 31.8756C31.3232 31.8917 31.3031 31.9098 31.2809 31.926C31.1982 31.9925 31.3999 31.8372 31.3192 31.8957C31.2688 31.932 31.2184 31.9683 31.1679 32.0026C30.9682 32.1358 30.7564 32.2507 30.5346 32.3435L30.6798 32.283C30.3853 32.404 30.0787 32.4887 29.762 32.5331C29.8165 32.525 29.8689 32.519 29.9234 32.5109C29.5966 32.5553 29.2658 32.5452 28.937 32.5452H27.398C27.0813 32.5452 26.7788 32.8236 26.7929 33.1503C26.807 33.4791 27.0592 33.7555 27.398 33.7555H28.929C29.1206 33.7555 29.3142 33.7595 29.5059 33.7555C30.0162 33.7434 30.5305 33.6445 31.0025 33.4509C31.9687 33.0515 32.7957 32.3354 33.2637 31.3915C33.5884 30.7399 33.7316 30.0461 33.7316 29.3219V23.3635C33.7296 22.4135 33.5703 21.4513 33.2435 20.5577C32.8986 19.6097 32.3963 18.7464 31.7488 17.9719C31.1397 17.2437 30.3934 16.6184 29.5765 16.1383C28.7394 15.6482 27.8075 15.2972 26.8514 15.1298C25.8207 14.9503 24.7839 14.9563 23.7572 15.152C22.8112 15.3315 21.8874 15.6946 21.0624 16.1928C20.2495 16.685 19.5113 17.3163 18.9142 18.0525C18.2748 18.8392 17.7806 19.7126 17.4478 20.6707C17.1493 21.534 17.002 22.4558 17 23.3675V28.2771C17 28.5938 17.2784 28.8963 17.6051 28.8822C17.9299 28.8661 18.2082 28.616 18.2082 28.2771Z" fill="#005985"/>
<path d="M26.791 33.1505C26.791 33.207 26.787 33.2614 26.7789 33.3159C26.787 33.2614 26.793 33.209 26.8011 33.1545C26.785 33.2614 26.7567 33.3643 26.7164 33.4652L26.7769 33.3199C26.7467 33.3885 26.7124 33.4551 26.672 33.5176C26.67 33.5216 26.6397 33.5741 26.6357 33.5721C26.6337 33.5721 26.7366 33.449 26.6821 33.5116C26.6559 33.5418 26.6297 33.5701 26.6034 33.5983C26.5792 33.6225 26.553 33.6467 26.5268 33.6689C26.4885 33.7032 26.434 33.7153 26.5772 33.6306C26.5631 33.6386 26.549 33.6507 26.5349 33.6608C26.4683 33.7052 26.3977 33.7415 26.3251 33.7738L26.4703 33.7133C26.3695 33.7536 26.2666 33.7818 26.1597 33.798C26.2141 33.7899 26.2666 33.7839 26.321 33.7758C26.0487 33.8101 25.7623 33.7879 25.488 33.7879C25.2076 33.7879 24.9172 33.8101 24.6368 33.7778C24.6913 33.7859 24.7437 33.7919 24.7982 33.8C24.6933 33.7839 24.5904 33.7576 24.4916 33.7193L24.6368 33.7798C24.5601 33.7476 24.4855 33.7092 24.4169 33.6628C24.3605 33.6245 24.3504 33.5801 24.4391 33.683C24.4129 33.6528 24.3766 33.6285 24.3484 33.6003C24.3241 33.5761 24.2798 33.5398 24.2657 33.5095C24.2838 33.5337 24.304 33.558 24.3221 33.5842C24.31 33.568 24.2979 33.5499 24.2858 33.5337C24.2394 33.4652 24.2011 33.3905 24.1688 33.3139L24.2293 33.4591C24.191 33.3603 24.1628 33.2594 24.1487 33.1525C24.1567 33.207 24.1628 33.2594 24.1708 33.3139C24.1587 33.2029 24.1567 33.094 24.1708 32.9851C24.1628 33.0396 24.1567 33.092 24.1487 33.1465C24.1648 33.0396 24.193 32.9367 24.2334 32.8358L24.1729 32.9811C24.2031 32.9125 24.2374 32.8459 24.2778 32.7834C24.2798 32.7794 24.31 32.7269 24.3141 32.7289C24.3161 32.7289 24.2132 32.852 24.2677 32.7894C24.2939 32.7592 24.3201 32.731 24.3463 32.7027C24.3705 32.6785 24.3968 32.6543 24.423 32.6321C24.4613 32.5978 24.5158 32.5857 24.3726 32.6704C24.3867 32.6624 24.4008 32.6503 24.4149 32.6402C24.4815 32.5958 24.5521 32.5595 24.6247 32.5272L24.4795 32.5877C24.5803 32.5474 24.6832 32.5192 24.7901 32.503C24.7356 32.5111 24.6832 32.5171 24.6287 32.5252C24.901 32.4909 25.1875 32.5131 25.4618 32.5131C25.7421 32.5131 26.0326 32.4909 26.313 32.5232C26.2585 32.5151 26.2061 32.5091 26.1516 32.501C26.2565 32.5171 26.3594 32.5434 26.4582 32.5817L26.313 32.5212C26.3896 32.5534 26.4643 32.5918 26.5328 32.6382C26.5893 32.6765 26.5994 32.7209 26.5107 32.618C26.5369 32.6483 26.5732 32.6725 26.6014 32.7007C26.6256 32.7249 26.67 32.7612 26.6841 32.7915C26.666 32.7673 26.6458 32.7431 26.6276 32.7168C26.6397 32.733 26.6519 32.7511 26.664 32.7673C26.7103 32.8358 26.7487 32.9105 26.7809 32.9871L26.7204 32.8419C26.7588 32.9407 26.787 33.0416 26.8011 33.1485C26.793 33.094 26.787 33.0416 26.7789 32.9871C26.787 33.0416 26.791 33.096 26.791 33.1505C26.7951 33.4672 27.0674 33.7697 27.3962 33.7556C27.7209 33.7415 28.0053 33.4894 28.0013 33.1505C27.9932 32.4728 27.6079 31.793 26.9827 31.4985C26.7124 31.3714 26.4421 31.3008 26.1415 31.2988H24.9817C24.5985 31.2988 24.2354 31.3452 23.8925 31.5348C23.3519 31.8313 23.0251 32.382 22.9546 32.9831C22.8739 33.6689 23.2369 34.3325 23.7997 34.7077C24.1527 34.9437 24.5601 35.0002 24.9736 35.0002H26.1476C26.4582 34.9981 26.7547 34.9195 27.0311 34.7763C27.6281 34.4636 27.9952 33.8141 28.0033 33.1485C28.0073 32.8318 27.7229 32.5292 27.3982 32.5434C27.0654 32.5615 26.7951 32.8116 26.791 33.1505Z" fill="#005985"/>
</svg>
