<svg width="50" height="50" viewBox="0 0 50 50" fill="none" xmlns="http://www.w3.org/2000/svg">
<circle cx="25" cy="25" r="25" fill="white"/>
<path d="M27 15V19.4444C27 19.7391 27.1171 20.0217 27.3254 20.2301C27.5338 20.4385 27.8164 20.5556 28.1111 20.5556H32.5556" stroke="#035A86" stroke-width="2" stroke-linecap="round" stroke-linejoin="round"/>
<path d="M30.3333 35H19.2222C18.6329 35 18.0676 34.7659 17.6509 34.3491C17.2341 33.9324 17 33.3671 17 32.7778V17.2222C17 16.6329 17.2341 16.0676 17.6509 15.6509C18.0676 15.2341 18.6329 15 19.2222 15H27L32.5556 20.5556V32.7778C32.5556 33.3671 32.3214 33.9324 31.9047 34.3491C31.4879 34.7659 30.9227 35 30.3333 35Z" stroke="#035A86" stroke-width="2" stroke-linecap="round" stroke-linejoin="round"/>
<path d="M23.6668 25.5556C23.6668 25.1136 23.4912 24.6896 23.1787 24.3771C22.8661 24.0645 22.4422 23.8889 22.0002 23.8889C21.5581 23.8889 21.1342 24.0645 20.8217 24.3771C20.5091 24.6896 20.3335 25.1136 20.3335 25.5556V28.8889C20.3335 29.3309 20.5091 29.7549 20.8217 30.0674C21.1342 30.38 21.5581 30.5556 22.0002 30.5556C22.4422 30.5556 22.8661 30.38 23.1787 30.0674C23.4912 29.7549 23.6668 29.3309 23.6668 28.8889M25.8891 23.8889L27.5557 30.5556L29.2224 23.8889" stroke="#035A86" stroke-width="2" stroke-linecap="round" stroke-linejoin="round"/>
</svg>
