<svg width="50" height="50" viewBox="0 0 50 50" fill="none" xmlns="http://www.w3.org/2000/svg">
<circle cx="25" cy="25" r="25" fill="#FFCB2A"/>
<path d="M27.7273 18C28.6917 18 29.6166 18.3831 30.2986 19.0651C30.9805 19.747 31.3636 20.6719 31.3636 21.6364C31.3636 22.6008 30.9805 23.5257 30.2986 24.2077C29.6166 24.8896 28.6917 25.2727 27.7273 25.2727C26.7628 25.2727 25.8379 24.8896 25.156 24.2077C24.474 23.5257 24.0909 22.6008 24.0909 21.6364C24.0909 20.6719 24.474 19.747 25.156 19.0651C25.8379 18.3831 26.7628 18 27.7273 18ZM27.7273 19.7273C27.221 19.7273 26.7354 19.9284 26.3773 20.2864C26.0193 20.6445 25.8182 21.13 25.8182 21.6364C25.8182 22.1427 26.0193 22.6283 26.3773 22.9863C26.7354 23.3443 27.221 23.5455 27.7273 23.5455C28.2336 23.5455 28.7192 23.3443 29.0772 22.9863C29.4352 22.6283 29.6364 22.1427 29.6364 21.6364C29.6364 21.13 29.4352 20.6445 29.0772 20.2864C28.7192 19.9284 28.2336 19.7273 27.7273 19.7273ZM27.7273 26.1818C30.1545 26.1818 35 27.3909 35 29.8182V32.5455H20.4545V29.8182C20.4545 27.3909 25.3 26.1818 27.7273 26.1818ZM27.7273 27.9091C25 27.9091 22.1818 29.2364 22.1818 29.8182V30.8182H33.2727V29.8182C33.2727 29.2364 30.4273 27.9091 27.7273 27.9091ZM18.6364 26.4364L16.3636 27.7909L16.9818 25.2364L15 23.5273L17.6091 23.3L18.6364 20.9L19.6455 23.3L22.2727 23.5273L20.2727 25.2364L20.8636 27.7909L18.6364 26.4364Z" fill="white"/>
</svg>
