<svg width="50" height="50" viewBox="0 0 50 50" fill="none" xmlns="http://www.w3.org/2000/svg">
<circle cx="25" cy="25" r="25" fill="#FFCB2A"/>
<path d="M16 23.417C16 20.219 16 18.62 16.378 18.082C16.755 17.545 18.258 17.03 21.265 16.001L21.838 15.805C23.405 15.268 24.188 15 25 15C25.811 15 26.595 15.268 28.162 15.805L28.735 16.001C31.742 17.03 33.245 17.545 33.622 18.082C34 18.62 34 20.22 34 23.417V24.991C34 30.629 29.761 33.366 27.101 34.527C26.38 34.842 26.02 35 25 35C23.98 35 23.62 34.842 22.899 34.527C20.239 33.365 16 30.63 16 24.991V23.417Z" stroke="white" stroke-width="1.5"/>
<path d="M25 24C26.1046 24 27 23.1046 27 22C27 20.8954 26.1046 20 25 20C23.8954 20 23 20.8954 23 22C23 23.1046 23.8954 24 25 24Z" stroke="white" stroke-width="1.5"/>
<path d="M29 28C29 29.105 29 30 25 30C21 30 21 29.105 21 28C21 26.895 22.79 26 25 26C27.21 26 29 26.895 29 28Z" stroke="white" stroke-width="1.5"/>
</svg>
