<svg width="50" height="50" viewBox="0 0 50 50" fill="none" xmlns="http://www.w3.org/2000/svg">
<circle cx="25" cy="25" r="25" fill="#FFCB2A"/>
<path d="M32.875 15H17.875C16.8438 15 16 15.8438 16 16.875V33.125C16 34.1562 16.8438 35 17.875 35H32.875C33.9062 35 34.75 34.1562 34.75 33.125V16.875C34.75 15.8438 33.9062 15 32.875 15ZM32.25 32.5H18.5V17.5H32.25V32.5ZM21 26.25H29.75V27.5H21V26.25ZM21 28.75H29.75V30H21V28.75ZM22.25 20.625C22.2501 20.3787 22.2987 20.1348 22.393 19.9073C22.4873 19.6797 22.6256 19.473 22.7998 19.2989C22.974 19.1248 23.1808 18.9867 23.4084 18.8925C23.636 18.7984 23.8799 18.7499 24.1263 18.75C24.3726 18.7501 24.6164 18.7987 24.844 18.893C25.0715 18.9873 25.2782 19.1256 25.4523 19.2998C25.6264 19.474 25.7645 19.6808 25.8587 19.9084C25.9529 20.136 26.0013 20.3799 26.0013 20.6262C26.0011 21.1237 25.8033 21.6007 25.4515 21.9523C25.0996 22.304 24.6224 22.5014 24.125 22.5012C23.6276 22.5011 23.1505 22.3033 22.7989 21.9515C22.4473 21.5996 22.2498 21.1224 22.25 20.625ZM25.375 22.5H22.875C21.8438 22.5 21 23.0625 21 23.75V25H27.25V23.75C27.25 23.0625 26.4062 22.5 25.375 22.5Z" fill="white"/>
</svg>
