<svg width="50" height="50" viewBox="0 0 50 50" fill="none" xmlns="http://www.w3.org/2000/svg">
<circle cx="25" cy="25" r="25" fill="white"/>
<path d="M33.7287 27.6157L31.8618 25.7488V23.2757C31.8597 21.5667 31.2239 19.9191 30.0775 18.6517C28.931 17.3842 27.3553 16.5868 25.655 16.4138V15H24.2757V16.4138C22.5755 16.5868 20.9998 17.3842 19.8533 18.6517C18.7068 19.9191 18.0711 21.5667 18.0689 23.2757V25.7488L16.2021 27.6157C16.0727 27.745 16 27.9204 16 28.1033V30.1722C16 30.3551 16.0727 30.5305 16.202 30.6598C16.3313 30.7892 16.5067 30.8618 16.6896 30.8618H21.5172V31.3977C21.5022 32.2726 21.8105 33.1223 22.3832 33.7839C22.9559 34.4455 23.7525 34.8725 24.6206 34.9831C25.1 35.0307 25.5841 34.9774 26.0416 34.8266C26.4992 34.6758 26.9202 34.431 27.2774 34.1077C27.6347 33.7845 27.9204 33.3901 28.116 32.9498C28.3117 32.5096 28.4131 32.0333 28.4136 31.5515V30.8618H33.2411C33.424 30.8618 33.5994 30.7892 33.7288 30.6598C33.8581 30.5305 33.9308 30.3551 33.9308 30.1722V28.1033C33.9307 27.9204 33.858 27.745 33.7287 27.6157ZM27.0343 31.5515C27.0343 32.1002 26.8163 32.6264 26.4283 33.0144C26.0403 33.4024 25.5141 33.6204 24.9654 33.6204C24.4167 33.6204 23.8904 33.4024 23.5024 33.0144C23.1144 32.6264 22.8964 32.1002 22.8964 31.5515V30.8618H27.0343V31.5515ZM32.5515 29.4825H17.3793V28.3888L19.2462 26.5219C19.3755 26.3926 19.4482 26.2172 19.4482 26.0343V23.2757C19.4482 21.8125 20.0295 20.4092 21.0642 19.3745C22.0988 18.3398 23.5021 17.7586 24.9654 17.7586C26.4286 17.7586 27.8319 18.3398 28.8666 19.3745C29.9013 20.4092 30.4825 21.8125 30.4825 23.2757V26.0343C30.4826 26.2172 30.5553 26.3926 30.6846 26.5219L32.5515 28.3888V29.4825Z" fill="#035A86"/>
</svg>
