<svg width="50" height="50" viewBox="0 0 50 50" fill="none" xmlns="http://www.w3.org/2000/svg">
<circle cx="25" cy="25" r="25" fill="#FFCB2A"/>
<path d="M17 33C16.45 33 15.979 32.804 15.587 32.412C15.195 32.02 14.9993 31.5493 15 31V19C15 18.45 15.196 17.979 15.588 17.587C15.98 17.195 16.4507 16.9993 17 17H33C33.55 17 34.021 17.196 34.413 17.588C34.805 17.98 35.0007 18.4507 35 19V31C35 31.55 34.804 32.021 34.412 32.413C34.02 32.805 33.5493 33.0007 33 33H17ZM33 21L25.525 25.675C25.4417 25.725 25.354 25.7627 25.262 25.788C25.17 25.8133 25.0827 25.8257 25 25.825C24.9167 25.825 24.829 25.8127 24.737 25.788C24.645 25.7633 24.5577 25.7257 24.475 25.675L17 21V31H33V21ZM25 24L33 19H17L25 24ZM17 21.25V19.775V19.8V19.788V21.25Z" fill="white"/>
</svg>
