<svg width="50" height="50" viewBox="0 0 50 50" fill="none" xmlns="http://www.w3.org/2000/svg">
<circle cx="25" cy="25" r="25" fill="#FFCB2A"/>
<path d="M28.3336 29.0006H27.0003V27.6673C27.0001 27.4905 26.9298 27.3211 26.8048 27.1961C26.6799 27.0711 26.5104 27.0008 26.3336 27.0006H23.667C23.4902 27.0008 23.3208 27.0711 23.1958 27.1961C23.0708 27.3211 23.0005 27.4905 23.0003 27.6673V29.0006H21.667V27.6673C21.6675 27.137 21.8784 26.6286 22.2534 26.2537C22.6283 25.8787 23.1367 25.6678 23.667 25.6673H26.3336C26.8639 25.6678 27.3723 25.8787 27.7473 26.2537C28.1222 26.6286 28.3331 27.137 28.3336 27.6673V29.0006ZM25.0003 25.0006C24.5388 25.0006 24.0877 24.8638 23.704 24.6074C23.3203 24.351 23.0212 23.9866 22.8446 23.5602C22.668 23.1339 22.6218 22.6647 22.7118 22.2121C22.8019 21.7595 23.0241 21.3437 23.3504 21.0174C23.6767 20.6911 24.0925 20.4689 24.5451 20.3788C24.9977 20.2888 25.4669 20.335 25.8932 20.5116C26.3196 20.6882 26.684 20.9873 26.9404 21.371C27.1968 21.7547 27.3336 22.2058 27.3336 22.6673C27.3329 23.2859 27.0869 23.879 26.6494 24.3164C26.212 24.7539 25.6189 24.9999 25.0003 25.0006ZM25.0003 21.6673C24.8025 21.6673 24.6092 21.726 24.4447 21.8358C24.2803 21.9457 24.1521 22.1019 24.0764 22.2846C24.0007 22.4674 23.9809 22.6684 24.0195 22.8624C24.0581 23.0564 24.1534 23.2346 24.2932 23.3744C24.4331 23.5143 24.6112 23.6095 24.8052 23.6481C24.9992 23.6867 25.2003 23.6669 25.383 23.5912C25.5657 23.5155 25.7219 23.3873 25.8318 23.2229C25.9417 23.0584 26.0003 22.8651 26.0003 22.6673C26 22.4022 25.8945 22.1481 25.707 21.9606C25.5196 21.7731 25.2654 21.6677 25.0003 21.6673Z" fill="white"/>
<path d="M34.6096 25.943C34.8596 25.693 35 25.3539 35 25.0003C35 24.6468 34.8596 24.3077 34.6096 24.0577L30.7516 20.1997L32.685 18.2917C32.9701 18.3627 33.2708 18.3376 33.5402 18.2203C33.8096 18.1029 34.0328 17.9 34.1751 17.6429C34.3174 17.3857 34.3709 17.0889 34.3272 16.7982C34.2836 16.5076 34.1452 16.2396 33.9336 16.0356C33.722 15.8317 33.4491 15.7033 33.157 15.6703C32.865 15.6374 32.5703 15.7017 32.3186 15.8534C32.0669 16.005 31.8723 16.2355 31.7649 16.5091C31.6576 16.7827 31.6435 17.084 31.725 17.3664L29.809 19.257L25.943 15.3904C25.693 15.1404 25.3539 15 25.0003 15C24.6468 15 24.3077 15.1404 24.0577 15.3904L20.1997 19.2497L18.2917 17.315C18.3623 17.0298 18.3368 16.7292 18.2192 16.46C18.1016 16.1907 17.8984 15.9678 17.6411 15.8258C17.3838 15.6838 17.0869 15.6307 16.7964 15.6746C16.5058 15.7186 16.2379 15.8573 16.0342 16.069C15.8305 16.2808 15.7024 16.5539 15.6698 16.8459C15.6371 17.138 15.7017 17.4326 15.8536 17.6841C16.0055 17.9357 16.2362 18.1301 16.5098 18.2372C16.7834 18.3442 17.0848 18.358 17.367 18.2764L19.257 20.1917L15.3904 24.0577C15.1404 24.3077 15 24.6468 15 25.0003C15 25.3539 15.1404 25.693 15.3904 25.943L19.257 29.809L17.367 31.7243C17.0854 31.6432 16.7848 31.6572 16.5119 31.7643C16.239 31.8713 16.0091 32.0654 15.8577 32.3164C15.7064 32.5674 15.642 32.8614 15.6747 33.1527C15.7073 33.444 15.8352 33.7164 16.0384 33.9276C16.2416 34.1389 16.5088 34.2772 16.7986 34.3212C17.0884 34.3652 17.3846 34.3123 17.6414 34.1708C17.8981 34.0293 18.1009 33.8071 18.2185 33.5386C18.3361 33.27 18.3618 32.9702 18.2917 32.6856L20.1997 30.7523L24.0577 34.6096C24.3077 34.8596 24.6468 35 25.0003 35C25.3539 35 25.693 34.8596 25.943 34.6096L29.8096 30.7436L31.7243 32.6343C31.6432 32.916 31.6572 33.2165 31.7643 33.4894C31.8713 33.7623 32.0654 33.9922 32.3164 34.1436C32.5674 34.295 32.8614 34.3593 33.1527 34.3267C33.444 34.294 33.7164 34.1662 33.9276 33.9629C34.1389 33.7597 34.2772 33.4925 34.3212 33.2027C34.3652 32.9129 34.3123 32.6167 34.1708 32.36C34.0293 32.1033 33.8071 31.9004 33.5386 31.7828C33.27 31.6652 32.9702 31.6395 32.6856 31.7096L30.7523 29.801L34.6096 25.943ZM25.0003 33.667L16.3337 25.0003L25.0003 16.3337L33.667 25.0003L25.0003 33.667Z" fill="white"/>
</svg>
