<svg width="50" height="50" viewBox="0 0 50 50" fill="none" xmlns="http://www.w3.org/2000/svg">
<circle cx="25" cy="25" r="25" fill="white"/>
<path d="M18 21C18.7956 21 19.5587 20.6839 20.1213 20.1213C20.6839 19.5587 21 18.7956 21 18C21 17.2044 20.6839 16.4413 20.1213 15.8787C19.5587 15.3161 18.7956 15 18 15C17.2044 15 16.4413 15.3161 15.8787 15.8787C15.3161 16.4413 15 17.2044 15 18C15 18.7956 15.3161 19.5587 15.8787 20.1213C16.4413 20.6839 17.2044 21 18 21Z" stroke="#035A86" stroke-width="2" stroke-linecap="round" stroke-linejoin="round"/>
<path d="M16.1417 20.355C15.7042 21.1876 15.3872 22.0782 15.2002 23M20.3552 16.1415C21.1878 15.704 22.0784 15.387 23.0002 15.2M32.0002 21C32.7958 21 33.5589 20.6839 34.1215 20.1213C34.6841 19.5587 35.0002 18.7956 35.0002 18C35.0002 17.2044 34.6841 16.4413 34.1215 15.8787C33.5589 15.3161 32.7958 15 32.0002 15C31.2045 15 30.4415 15.3161 29.8789 15.8787C29.3163 16.4413 29.0002 17.2044 29.0002 18C29.0002 18.7956 29.3163 19.5587 29.8789 20.1213C30.4415 20.6839 31.2045 21 32.0002 21Z" stroke="#035A86" stroke-width="2" stroke-linecap="round" stroke-linejoin="round"/>
<path d="M29.645 16.1407C28.8124 15.7032 27.9218 15.3862 27 15.1992M33.858 20.3542C34.2957 21.1868 34.6129 22.0774 34.8 22.9992M32 34.9992C32.7956 34.9992 33.5587 34.6831 34.1213 34.1205C34.6839 33.5579 35 32.7949 35 31.9992C35 31.2036 34.6839 30.4405 34.1213 29.8779C33.5587 29.3153 32.7956 28.9992 32 28.9992C31.2044 28.9992 30.4413 29.3153 29.8787 29.8779C29.3161 30.4405 29 31.2036 29 31.9992C29 32.7949 29.3161 33.5579 29.8787 34.1205C30.4413 34.6831 31.2044 34.9992 32 34.9992Z" stroke="#035A86" stroke-width="2" stroke-linecap="round" stroke-linejoin="round"/>
<path d="M33.858 29.645C34.2957 28.8124 34.6129 27.9218 34.8 27M29.645 33.858C28.8124 34.2957 27.9218 34.6129 27 34.8M18 35C18.7956 35 19.5587 34.6839 20.1213 34.1213C20.6839 33.5587 21 32.7956 21 32C21 31.2044 20.6839 30.4413 20.1213 29.8787C19.5587 29.3161 18.7956 29 18 29C17.2044 29 16.4413 29.3161 15.8787 29.8787C15.3161 30.4413 15 31.2044 15 32C15 32.7956 15.3161 33.5587 15.8787 34.1213C16.4413 34.6839 17.2044 35 18 35Z" stroke="#035A86" stroke-width="2" stroke-linecap="round" stroke-linejoin="round"/>
<path d="M20.3552 33.858C21.1878 34.2957 22.0784 34.6129 23.0002 34.8M16.1417 29.645C15.7042 28.8124 15.3872 27.9218 15.2002 27M25.0002 28V22M22.0002 25H28.0002" stroke="#035A86" stroke-width="2" stroke-linecap="round" stroke-linejoin="round"/>
</svg>
