<svg width="50" height="50" viewBox="0 0 50 50" fill="none" xmlns="http://www.w3.org/2000/svg">
<circle cx="25" cy="25" r="25" fill="#FFCB2A"/>
<path d="M22.5788 21.1576C23.1683 21.1576 23.6419 20.6839 23.6419 20.0944C23.6419 19.5049 23.1683 19.0312 22.5788 19.0312C21.9893 19.0312 21.5156 19.5049 21.5156 20.0944C21.5156 20.6839 21.9893 21.1576 22.5788 21.1576Z" fill="white"/>
<path fill-rule="evenodd" clip-rule="evenodd" d="M24.7156 23.4735C24.7156 22.3367 23.7577 21.5156 22.5788 21.5156C21.3998 21.5156 20.442 22.3367 20.442 23.4735V24.0104C20.442 24.1051 20.4841 24.1998 20.5472 24.263C20.6104 24.3262 20.7051 24.3683 20.7998 24.3683H24.3577C24.4525 24.3683 24.5472 24.3262 24.6104 24.263C24.6735 24.1998 24.7156 24.1051 24.7156 24.0104V23.4735ZM20.4209 26.5788C20.4209 26.3694 20.5041 26.1686 20.6521 26.0205C20.8002 25.8725 21.001 25.7893 21.2104 25.7893H28.5788C28.7882 25.7893 28.989 25.8725 29.137 26.0205C29.2851 26.1686 29.3683 26.3694 29.3683 26.5788C29.3683 26.7882 29.2851 26.989 29.137 27.137C28.989 27.2851 28.7882 27.3683 28.5788 27.3683H21.2104C21.001 27.3683 20.8002 27.2851 20.6521 27.137C20.5041 26.989 20.4209 26.7882 20.4209 26.5788ZM20.4209 29.7367C20.4209 29.5273 20.5041 29.3265 20.6521 29.1784C20.8002 29.0304 21.001 28.9472 21.2104 28.9472H28.5788C28.7882 28.9472 28.989 29.0304 29.137 29.1784C29.2851 29.3265 29.3683 29.5273 29.3683 29.7367C29.3683 29.9461 29.2851 30.1469 29.137 30.2949C28.989 30.443 28.7882 30.5262 28.5788 30.5262H21.2104C21.001 30.5262 20.8002 30.443 20.6521 30.2949C20.5041 30.1469 20.4209 29.9461 20.4209 29.7367Z" fill="white"/>
<path fill-rule="evenodd" clip-rule="evenodd" d="M17 17.1053C17 15.9453 17.9453 15 19.1053 15H26.1474C26.7389 15 27.2968 15.2505 27.6895 15.6642L27.6958 15.6716L32.2347 20.6211C32.6126 21.0242 32.7895 21.5516 32.7895 22.0526V32.8947C32.7895 34.0547 31.8442 35 30.6842 35H19.1053C17.9453 35 17 34.0547 17 32.8947V17.1053ZM26.1463 17.1053H19.1053V32.8947H30.6842V22.0442L26.1621 17.1126L26.1589 17.1116C26.1551 17.1088 26.1508 17.1067 26.1463 17.1053Z" fill="white"/>
<path fill-rule="evenodd" clip-rule="evenodd" d="M26.1474 15C26.4265 15 26.6943 15.1109 26.8917 15.3083C27.0891 15.5057 27.2 15.7735 27.2 16.0526V21H31.7368C31.8751 21 32.0119 21.0272 32.1397 21.0801C32.2674 21.133 32.3834 21.2106 32.4812 21.3083C32.5789 21.4061 32.6564 21.5221 32.7093 21.6498C32.7622 21.7775 32.7895 21.9144 32.7895 22.0526C32.7895 22.1909 32.7622 22.3277 32.7093 22.4555C32.6564 22.5832 32.5789 22.6992 32.4812 22.797C32.3834 22.8947 32.2674 22.9722 32.1397 23.0251C32.0119 23.078 31.8751 23.1053 31.7368 23.1053H26.1474C25.8682 23.1053 25.6004 22.9944 25.403 22.797C25.2056 22.5995 25.0947 22.3318 25.0947 22.0526V16.0526C25.0947 15.7735 25.2056 15.5057 25.403 15.3083C25.6004 15.1109 25.8682 15 26.1474 15Z" fill="white"/>
</svg>
