<svg width="80" height="80" viewBox="0 0 80 80" fill="none" xmlns="http://www.w3.org/2000/svg">
<circle opacity="0.1" cx="40" cy="40" r="40" fill="#FD4C5C"/>
<path d="M59 45.1159V34.8841H56.1701C55.8186 33.702 55.3461 32.5615 54.7582 31.4768L56.7596 29.4754L49.5247 22.2404L47.5233 24.2418C46.4385 23.654 45.298 23.1813 44.1159 22.8299V20H33.8841V22.8299C32.702 23.1813 31.5616 23.6539 30.4768 24.2418L28.4754 22.2404L21.2404 29.4754L23.2418 31.4768C22.654 32.5616 22.1813 33.702 21.8299 34.8841H19V45.1159H21.8299C22.1814 46.298 22.654 47.4385 23.2418 48.5233L21.2404 50.5247L28.4754 57.7597L30.4768 55.7583C31.5615 56.3461 32.702 56.8188 33.8841 57.1702V60H44.1159V57.1701C45.298 56.8186 46.4386 56.346 47.5233 55.7582L49.5247 57.7596L56.7596 50.5246L54.7583 48.5232C55.3461 47.4385 55.8187 46.298 56.1702 45.1159H59ZM54.3499 42.7721L54.1334 43.6688C53.7548 45.2362 53.1362 46.7291 52.2948 48.1059L51.8138 48.8931L53.4452 50.5246L49.5248 54.445L47.8934 52.8136L47.106 53.2947C45.7291 54.1361 44.2363 54.7547 42.669 55.1333L41.7723 55.3498V57.6562H36.228V55.3499L35.3312 55.1334C33.7638 54.7548 32.271 54.1362 30.8942 53.2948L30.107 52.8137L28.4755 54.4451L24.5551 50.5247L26.1865 48.8932L25.7054 48.1059C24.864 46.7291 24.2454 45.2363 23.8668 43.6689L23.6502 42.7722H21.3438V37.2279H23.6502L23.8667 36.3311C24.2453 34.7637 24.8639 33.2709 25.7053 31.8941L26.1864 31.1067L24.555 29.4753L28.4754 25.5548L30.1069 27.1863L30.8941 26.7052C32.2709 25.8637 33.7637 25.2452 35.3311 24.8666L36.2279 24.6501V22.3438H41.7722V24.6502L42.669 24.8667C44.2363 25.2452 45.7291 25.8638 47.106 26.7052L47.8933 27.1863L49.5248 25.5549L53.4452 29.4754L51.8138 31.1068L52.2948 31.8941C53.1362 33.2709 53.7548 34.7638 54.1334 36.3312L54.3499 37.228H56.6562V42.7723H54.3499V42.7721Z" fill="#FD4C5C"/>
<path d="M39 26.3281C31.4613 26.3281 25.3281 32.4613 25.3281 40C25.3281 47.5387 31.4613 53.6719 39 53.6719C46.5387 53.6719 52.6719 47.5387 52.6719 40C52.6719 32.4613 46.5387 26.3281 39 26.3281ZM39 51.3281C32.7537 51.3281 27.6719 46.2463 27.6719 40C27.6719 33.7537 32.7537 28.6719 39 28.6719C45.2463 28.6719 50.3281 33.7537 50.3281 40C50.3281 46.2463 45.2463 51.3281 39 51.3281Z" fill="#FD4C5C"/>
<path d="M42.8943 38.3079L45.013 40.4267L42.8943 42.5456L44.5516 44.2027L48.3276 40.4267L44.5516 36.6506L42.8943 38.3079Z" fill="#FD4C5C"/>
<path d="M33.4487 36.6506L29.6726 40.4267L33.4487 44.2027L35.106 42.5456L32.9872 40.4267L35.106 38.3079L33.4487 36.6506Z" fill="#FD4C5C"/>
<path d="M36.5217 47.5527L39.2612 32.0447L41.5698 32.4525L38.8303 47.9605L36.5217 47.5527Z" fill="#FD4C5C"/>
</svg>
