<svg width="80" height="80" viewBox="0 0 80 80" fill="none" xmlns="http://www.w3.org/2000/svg">
<circle opacity="0.1" cx="40" cy="40" r="40" fill="#00BB98"/>
<path d="M58.8333 20.0011C50.4439 20.0088 42.2243 23.5399 36.28 29.6902L34.1663 31.8039L31.9192 29.5567L25.2858 31.4291L20 36.7148L24.6275 41.3424L24.6274 41.3425L24.8667 41.5817L22.69 46.0723L24.1247 47.5071L20.6154 51.0165L22.2732 52.6743L25.7826 49.165L27.4798 50.8623L20.0479 58.294L21.7057 59.9519L29.1376 52.5201L30.8348 54.2173L27.3253 57.7268L28.9831 59.3846L32.4926 55.8751L33.9274 57.31L38.4181 55.1332L43.2849 60L48.5702 54.7149L50.4491 48.087L48.1959 45.834L50.3095 43.7204C53.2409 40.8949 55.6704 37.4109 57.3357 33.6445C60.4982 26.492 59.9375 20.7495 60.0077 20L58.8333 20.0011ZM26.5111 33.5193L31.2331 32.1865L32.5083 33.4616L26.2852 39.6847L23.3156 36.7148L26.5111 33.5193ZM34.4058 54.4727L25.5272 45.594L26.6215 43.3367L36.6633 53.3784L34.4058 54.4727ZM47.818 48.7719L46.481 53.4886L43.2849 56.6845L40.3152 53.7148L46.538 47.492L47.818 48.7719ZM48.675 42.0395L46.5381 44.1764L46.5379 44.1762L38.6575 52.0566L27.9432 41.3425C28.7332 40.5526 35.0619 34.224 35.8241 33.4617C36.0708 33.2151 34.9861 34.2999 37.9594 31.3262C43.1811 25.9204 50.2946 22.6973 57.6351 22.3728C57.3108 29.7184 54.0854 36.8285 48.675 42.0395Z" fill="#65D6C1"/>
<path d="M48.7201 38.8378C50.806 36.752 50.8076 33.3597 48.7239 31.2759C47.7161 30.2682 46.3746 29.7131 44.9463 29.7131C41.9981 29.7131 39.6013 32.0889 39.6021 35.0552C39.6024 36.484 40.1578 37.826 41.1659 38.8341C43.2298 40.8978 46.6251 40.9329 48.7201 38.8378ZM44.9463 32.0577C45.7483 32.0577 46.5012 32.3688 47.066 32.9337C48.2357 34.1034 48.2339 36.0083 47.0623 37.18C46.5011 37.7411 45.75 38.0502 44.9472 38.0502C43.2696 38.0502 41.9471 36.7051 41.9466 35.0545C41.9464 34.2526 43.3042 32.0577 44.9463 32.0577Z" fill="#65D6C1"/>
</svg>
