<svg width="80" height="80" viewBox="0 0 80 80" fill="none" xmlns="http://www.w3.org/2000/svg">
<circle opacity="0.1" cx="40" cy="40" r="40" fill="#377CFD"/>
<path d="M60 58.4375C60 59.3005 59.3005 60 58.4375 60H40C39.137 60 38.4375 59.3005 38.4375 58.4375C38.4375 57.5745 39.137 56.875 40 56.875H58.4375C59.3005 56.875 60 57.5745 60 58.4375ZM58.4375 50.7291H46.1459C45.2829 50.7291 44.5834 51.4288 44.5834 52.2916C44.5834 53.1546 45.2829 53.8541 46.1459 53.8541H58.4375C59.3005 53.8541 60 53.1546 60 52.2916C60 51.4288 59.3005 50.7291 58.4375 50.7291ZM58.4375 44.5834H52.2916C51.4285 44.5834 50.7291 45.2829 50.7291 46.1459C50.7291 47.009 51.4285 47.7084 52.2916 47.7084H58.4375C59.3005 47.7084 60 47.009 60 46.1459C60 45.2829 59.3005 44.5834 58.4375 44.5834ZM59.5422 31.886L31.886 59.5422C31.593 59.8355 31.1957 60 30.7812 60H21.5625C20.6995 60 20 59.3005 20 58.4375V49.2187C20 48.8043 20.1645 48.407 20.4578 48.114L48.114 20.4578C48.7241 19.8474 49.7134 19.8474 50.3235 20.4578L59.5422 29.6765C60.1526 30.2866 60.1526 31.2759 59.5422 31.886ZM56.2277 30.7812L49.2187 23.7723L23.125 49.866V56.875H30.134L56.2277 30.7812Z" fill="#2B59FF"/>
</svg>
