<svg width="80" height="80" viewBox="0 0 80 80" fill="none" xmlns="http://www.w3.org/2000/svg">
<circle opacity="0.1" cx="40" cy="40" r="40" fill="#781BFF"/>
<path d="M50.3387 39.6213L61.8831 28.0635C62.132 27.8143 62.2716 27.4763 62.271 27.1241C62.2705 26.772 62.1298 26.4345 61.8802 26.1861L53.0372 17.3873C52.5189 16.8716 51.6811 16.8726 51.1639 17.3896L39.6355 28.9181L29.9813 19.264C29.7885 19.0711 29.5408 18.9423 29.2722 18.8954L18.5549 17.0198C18.1292 16.9455 17.6939 17.0829 17.3884 17.3885C17.0828 17.6941 16.9453 18.1293 17.0199 18.555L18.8968 29.2711C18.9438 29.54 19.0727 29.7878 19.2659 29.9806L28.9254 39.6283L17.389 51.1646C17.1403 51.4133 17.0005 51.7506 17.0005 52.1023C17.0005 52.4542 17.1403 52.7915 17.389 53.0402L26.2296 61.8807C26.4783 62.1295 26.8156 62.2691 27.1673 62.2691H27.1677C27.5196 62.269 27.857 62.1291 28.1056 61.8802L39.6413 50.3313L51.2067 61.8824C51.4555 62.1308 51.7926 62.2703 52.1441 62.2703H52.1461C52.4983 62.2698 52.8357 62.1291 53.0841 61.8795L61.8829 53.0364C62.3986 52.5181 62.3976 51.6802 61.8806 51.1631L50.3387 39.6213ZM44.2307 28.0742L47.0441 30.8876C47.3031 31.1467 47.6425 31.2761 47.982 31.2761C48.3214 31.2761 48.6608 31.1467 48.9197 30.8876C49.4377 30.3698 49.4377 29.53 48.9197 29.012L46.1063 26.1986L48.6516 23.6533L51.465 26.4668C51.724 26.7258 52.0634 26.8553 52.4029 26.8553C52.7423 26.8553 53.0817 26.7258 53.3406 26.4668C53.8586 25.9489 53.8586 25.1091 53.3406 24.5912L50.5272 21.7777L52.1042 20.2007L59.0674 27.1291L48.4631 37.7457L41.5111 30.7937L44.2307 28.0742ZM26.3014 21.0683L21.0693 26.3005L19.9585 19.9583L26.3014 21.0683ZM27.1668 59.0667L20.2024 52.1023L21.7774 50.5274L24.5909 53.3408C24.8497 53.5998 25.1893 53.7293 25.5286 53.7293C25.8681 53.7293 26.2075 53.5998 26.4664 53.3408C26.9843 52.823 26.9843 51.9832 26.4664 51.4652L23.6529 48.6518L26.1982 46.1065L29.0116 48.9199C29.2705 49.1789 29.6101 49.3084 29.9495 49.3084C30.2889 49.3084 30.6284 49.1789 30.8872 48.9199C31.4052 48.4021 31.4052 47.5623 30.8872 47.0443L28.0738 44.2309L30.802 41.5028L37.7644 48.4566L27.1668 59.0667ZM52.141 59.0666L22.0792 29.0417L24.6227 26.4982L54.6598 56.5353L52.141 59.0666ZM56.5306 54.655L26.4983 24.6226L29.0436 22.0774L59.0695 52.1033L56.5306 54.655Z" fill="#781BFF"/>
</svg>
