<svg width="80" height="80" viewBox="0 0 80 80" fill="none" xmlns="http://www.w3.org/2000/svg">
<circle opacity="0.1" cx="40" cy="40" r="40" fill="#FFC83E"/>
<path d="M59.8737 53.805V30.4848H53.4583V17H25.8117V30.4848H19.3963V53.805H17V58.5585C17 60.6049 18.6651 62.27 20.7115 62.27H58.5585C60.6049 62.27 62.27 60.6049 62.27 58.5585V53.805H59.8737ZM22.0488 33.1373H25.8117V48.8305H28.4643V19.6525H50.8057V48.8305H53.4583V33.1373H57.2212V53.805H41.9339V54.7113H37.3361V53.805H22.0488V33.1373ZM59.6175 58.5585C59.6175 59.1426 59.1426 59.6175 58.5585 59.6175H20.7115C20.1274 59.6175 19.6525 59.1426 19.6525 58.5585V56.4576H34.6836V57.3638H44.5864V56.4576H59.6175V58.5585Z" fill="#FFC83E"/>
<path d="M32.915 23.7197H46.3546V26.3723H32.915V23.7197Z" fill="#FFC83E"/>
<path d="M32.915 29.2017H46.3546V31.8542H32.915V29.2017Z" fill="#FFC83E"/>
<path d="M32.915 34.6836H46.3546V37.3361H32.915V34.6836Z" fill="#FFC83E"/>
<path d="M32.915 40.1655H46.3546V42.8181H32.915V40.1655Z" fill="#FFC83E"/>
</svg>
