<svg width="80" height="80" viewBox="0 0 80 80" fill="none" xmlns="http://www.w3.org/2000/svg">
<circle opacity="0.1" cx="40" cy="40" r="40" fill="#001C80"/>
<path d="M20 61.9437C20 62.6762 20.5938 63.27 21.3263 63.27H26.6313C27.3638 63.27 27.9576 62.6762 27.9576 61.9437V55.7545C27.9576 55.022 27.3638 54.4282 26.6313 54.4282H21.3263C20.5938 54.4282 20 55.022 20 55.7545V61.9437ZM22.6525 57.0808H25.3051V60.6175H22.6525V57.0808Z" fill="#001C80"/>
<path d="M38.568 61.9437V49.1974C38.568 48.4649 37.9742 47.8711 37.2417 47.8711H31.9366C31.2042 47.8711 30.6104 48.4649 30.6104 49.1974V61.9437C30.6104 62.6761 31.2042 63.2699 31.9366 63.2699H37.2417C37.9742 63.2699 38.568 62.6761 38.568 61.9437ZM35.9154 60.6174H33.2629V50.5236H35.9154V60.6174Z" fill="#001C80"/>
<path d="M49.1783 61.9436V39.3658C49.1783 38.6334 48.5845 38.0396 47.852 38.0396H42.547C41.8145 38.0396 41.2207 38.6334 41.2207 39.3658V61.9436C41.2207 62.6761 41.8145 63.2699 42.547 63.2699H47.852C48.5845 63.2699 49.1783 62.6761 49.1783 61.9436ZM46.5258 60.6173H43.8732V40.6921H46.5258V60.6173Z" fill="#001C80"/>
<path d="M59.7877 61.9436V29.586C59.7877 28.8536 59.1939 28.2598 58.4614 28.2598H53.1563C52.4239 28.2598 51.8301 28.8536 51.8301 29.586V61.9436C51.8301 62.6761 52.4239 63.2699 53.1563 63.2699H58.4614C59.1939 63.2699 59.7877 62.6761 59.7877 61.9436ZM57.1351 60.6174H54.4826V30.9123H57.1351V60.6174Z" fill="#001C80"/>
<path d="M59.5757 18.2294C58.9698 17.8177 58.145 17.9752 57.7334 18.5811L54.7616 22.9549H50.2303C49.7369 22.9549 49.2842 23.2289 49.0554 23.666L44.3079 32.7347H39.894C39.4098 32.7347 38.9641 32.9985 38.7312 33.423L33.7153 42.5661H29.2838C28.8472 42.5661 28.4385 42.781 28.1911 43.1408L24.077 49.1231H21.3263C20.5938 49.1231 20 49.7169 20 50.4494C20 51.1818 20.5938 51.7757 21.3263 51.7757H24.7746C25.2112 51.7757 25.6199 51.5607 25.8673 51.2009L29.9814 45.2186H34.5005C34.9847 45.2186 35.4304 44.9548 35.6633 44.5303L40.6791 35.3872H45.1106C45.6041 35.3872 46.0568 35.1132 46.2856 34.676L51.0331 25.6074H55.4639C55.9032 25.6074 56.314 25.3899 56.5609 25.0265L59.9274 20.0718C60.339 19.4659 60.1816 18.6411 59.5757 18.2294Z" fill="#001C80"/>
</svg>
