<svg width="24" height="19" viewBox="0 0 24 19" fill="none" xmlns="http://www.w3.org/2000/svg">
<path d="M7.69507 13.6822L20.3946 0.609329C20.7892 0.203109 21.2915 0 21.9013 0C22.5112 0 23.0135 0.203109 23.4081 0.609329C23.8027 1.01555 24 1.53255 24 2.16035C24 2.78814 23.8027 3.30515 23.4081 3.71137L9.20179 18.3353C8.7713 18.7784 8.26906 19 7.69507 19C7.12108 19 6.61883 18.7784 6.18834 18.3353L0.591927 12.5743C0.197309 12.1681 0 11.6511 0 11.0233C0 10.3955 0.197309 9.87852 0.591927 9.4723C0.986546 9.06608 1.48879 8.86297 2.09865 8.86297C2.70852 8.86297 3.21076 9.06608 3.60538 9.4723L7.69507 13.6822Z" fill="#00BB98"/>
</svg>
